<svg width="203" height="30" viewBox="0 0 203 30" fill="none" xmlns="http://www.w3.org/2000/svg">
<path d="M56.3443 6.36051H50.2676V22.0188H45.4538V6.36051H39.4068V2.84367H56.3443V6.36051Z" fill="white" stroke="white" strokeWidth="1.60773" stroke-miterlimit="10"/>
<path d="M68.6761 12.1371C61.8544 9.64188 63.6662 18.1858 63.4463 22.0189H58.7513V8.32602H63.4463V10.8667H63.5057C64.2866 8.64494 66.5482 7.643 68.6761 8.2459V12.1371Z" fill="white" stroke="white" strokeWidth="1.60775" stroke-miterlimit="10"/>
<path d="M83.5188 22.0189H79.0764V20.0536H79.017C76.9385 23.6607 69.5458 23.0215 69.731 18.2082C69.4203 13.7019 75.4505 13.497 79.1061 13.1137C78.954 9.41724 73.3843 10.999 71.2316 12.3242V9.14173C75.7845 7.10677 84.0334 7.31636 83.5185 13.8358C83.5188 13.8356 83.5188 22.0189 83.5188 22.0189ZM79.1061 16.4563V15.534C77.6111 15.7835 73.8438 15.6304 74.0547 17.7131C74.4625 20.7406 79.4934 19.2208 79.1061 16.4563Z" fill="white" stroke="white" strokeWidth="1.60775" stroke-miterlimit="10"/>
<path d="M102.121 22.0189H97.4255V20.1334H97.3661C93.6217 24.8167 85.8479 21.8081 86.3272 15.4804C86.2612 11.205 88.9867 7.95413 93.2654 7.99187C95.2266 7.99187 96.5935 8.62492 97.3661 9.89072H97.4255V1.74731H102.121V22.0189ZM97.5147 15.3598C98.2175 9.85331 90.7899 9.82942 91.0962 15.3598C90.8105 20.4218 97.7084 20.2841 97.5147 15.3598Z" fill="white" stroke="white" strokeWidth="1.60775" stroke-miterlimit="10"/>
<path d="M119.742 16.3759H109.817C109.841 20.1341 115.975 19.811 118.404 18.2882V21.3372C115.642 22.7261 109.529 22.9089 107.202 20.5144C104.388 18.1664 104.533 12.301 107.365 9.98426C109.906 7.43133 115.499 7.29645 117.922 9.77046C119.62 11.2291 119.868 14.0406 119.742 16.3759ZM115.388 13.7819C115.593 9.56991 110.052 10.195 109.787 13.7819H115.388Z" fill="white" stroke="white" strokeWidth="1.60775" stroke-miterlimit="10"/>
<path d="M140.869 22.0189H135.357L132.044 17.085C130.971 15.3149 129.922 14.4012 127.795 14.6781V22.0189H122.995V2.84357C127.787 2.96972 138.907 1.49008 138.358 8.05884C138.415 10.8217 136.129 12.7929 133.574 13.3945V13.4475C136.388 14.4337 139.031 19.8633 140.869 22.0189ZM127.795 6.07961V11.4149C129.966 11.57 133.319 11.4108 133.307 8.59325C133.474 5.86408 130.027 6.0095 127.795 6.07961Z" fill="#00AEEF" stroke="#00AEEF" strokeWidth="1.60775" stroke-miterlimit="10"/>
<path d="M156.068 16.3759H146.144C146.168 20.1339 152.302 19.8112 154.731 18.2882V21.3372C151.969 22.7262 145.856 22.9088 143.529 20.5144C140.715 18.1663 140.86 12.3009 143.692 9.98426C146.233 7.4313 151.826 7.29648 154.249 9.77046C155.947 11.2291 156.195 14.0406 156.068 16.3759ZM151.715 13.7819C151.919 9.56975 146.379 10.1952 146.114 13.7819H151.715Z" fill="#00AEEF" stroke="#00AEEF" strokeWidth="1.60775" stroke-miterlimit="10"/>
<path d="M163.616 20.4277H163.557V28.3173H158.862V8.32602H163.557V10.3854H163.616C167.434 5.53931 175.133 8.30034 174.685 14.7847C174.685 17.0669 174.058 18.8988 172.806 20.2808C170.757 22.7705 165.59 23.2648 163.616 20.4277ZM163.483 14.8115C162.709 20.5573 170.192 20.5719 169.871 14.8382C170.242 9.79494 163.248 10.2712 163.483 14.8115Z" fill="#00AEEF" stroke="#00AEEF" strokeWidth="1.60775" stroke-miterlimit="10"/>
<path d="M182.426 22.0189H177.731V1.74731H182.426V22.0189Z" fill="#00AEEF" stroke="#00AEEF" strokeWidth="1.60775" stroke-miterlimit="10"/>
<path d="M200.864 8.32602L194.684 23.1154C193.198 26.6725 190.959 28.4508 187.968 28.4508C186.829 28.4508 185.893 28.3348 185.16 28.1029V24.7334C185.784 25.0632 186.462 25.2281 187.195 25.2281C188.404 25.2281 189.246 24.7154 189.721 23.6905L190.523 21.9921L184.343 8.32602H189.543L192.38 16.6568C192.559 17.1741 192.697 17.7848 192.796 18.4886H192.856C192.945 17.9718 193.109 17.3705 193.346 16.6836L196.214 8.32602H200.864Z" fill="#00AEEF" stroke="#00AEEF" strokeWidth="1.60775" stroke-miterlimit="10"/>
<path d="M26.6748 16.0554C25.8568 14.947 24.8697 13.6601 23.5089 13.2342V13.1822C25.9897 12.597 28.1981 10.675 28.1425 7.99482C28.4575 3.80481 23.4591 2.57888 18.7018 2.9245V6.07072H20.012C23.1343 5.83104 24.2419 8.67344 22.3289 10.4782C21.3856 11.4545 19.2365 11.2473 17.911 11.2581V8.11276H13.2629V21.5678H17.911V14.4303C19.9798 14.1614 20.9869 15.0528 22.0266 16.7707C22.0267 16.7705 25.2357 21.5678 25.2357 21.5678H30.5746L26.6748 16.0554Z" fill="#00AEEF"/>
<path d="M26.6748 16.0554C25.8568 14.947 24.8697 13.6601 23.5089 13.2342V13.1822C25.9897 12.597 28.1981 10.675 28.1425 7.99482C28.4575 3.80481 23.4591 2.57888 18.7018 2.9245V6.07072H20.012C23.1343 5.83104 24.2419 8.67344 22.3289 10.4782C21.3856 11.4545 19.2365 11.2473 17.911 11.2581V8.11276H13.2629V21.5678H17.911V14.4303C19.9798 14.1614 20.9869 15.0528 22.0266 16.7707C22.0267 16.7705 25.2357 21.5678 25.2357 21.5678H30.5746L26.6748 16.0554Z" stroke="#00AEEF" strokeWidth="1.09032" stroke-miterlimit="10"/>
<path d="M17.3178 6.40621H11.4148V22.1253H6.73851V6.40621H0.864319V2.87578H17.3178V6.40621Z" fill="white" stroke="white" strokeWidth="0.813416" stroke-miterlimit="10"/>
</svg>
