<?xml version="1.0" encoding="utf-8"?>
<!-- Generator: Adobe Illustrator 27.7.0, SVG Export Plug-In . SVG Version: 6.00 Build 0)  -->
<svg version="1.1" xmlns="http://www.w3.org/2000/svg" xmlns:xlink="http://www.w3.org/1999/xlink" x="0px" y="0px"
	 viewBox="0 0 774.1111 175.4815" enable-background="new 0 0 774.1111 175.4815" xml:space="preserve">
<g id="Layer_3">
</g>
<g id="Layer_2">
	<rect y="-1.3901" fill="#FFFFFF" stroke="#FFFFFF" stroke-miterlimit="10" width="774.1111" height="176.8716"/>
	<g>
		<rect y="-1.3901" stroke="#000000" strokeWidth="1.0041" stroke-miterlimit="10" width="774.1111" height="176.2049"/>
		<path fill="#2AACE2" stroke="#2AACE2" strokeWidth="5.5488" stroke-miterlimit="10" d="M88.4147,60.6092H60.1572v72.8134H37.7723
			V60.6092H9.6529V44.2553h78.7618V60.6092z"/>
		<path fill="#2AACE2" stroke="#2AACE2" strokeWidth="5.5489" stroke-miterlimit="10" d="M145.7599,87.4714
			c-5.9271-2.9758-16.0394-2.8433-20.3124,2.7665c-2.6716,3.1319-4.0073,7.3911-4.0073,12.7801v30.405H99.6077V69.7491h21.8325
			v11.8144h0.2764c3.7724-10.3921,13.9989-14.9747,24.0433-12.1869V87.4714z"/>
		<path fill="#2AACE2" stroke="#2AACE2" strokeWidth="5.5489" stroke-miterlimit="10" d="M214.7808,133.423h-20.6579v-9.1388
			h-0.2764c-4.7442,7.1285-11.7697,10.6941-21.0725,10.6941c-12.5574,0.1543-22.1268-6.7195-22.1089-19.2748
			c0.0043-22.4314,25.3295-21.1188,43.5959-23.691c0.2135-16.9998-27.2655-9.7686-36.6177-3.6713V73.5423
			c6.4346-3.0203,19.4063-5.4546,26.876-5.347c20.1743,0,30.2614,9.0575,30.2614,27.174V133.423z M194.2611,107.5562v-4.289
			l-12.8508,1.4902c-7.0932,0.8318-10.6399,3.7119-10.6399,8.643c0,2.2407,0.8643,4.075,2.5902,5.5028
			c1.7286,1.4306,4.0655,2.1459,7.0133,2.1459C188.2653,121.2068,194.371,115.3932,194.2611,107.5562z"/>
		<path fill="#2AACE2" stroke="#2AACE2" strokeWidth="5.5489" stroke-miterlimit="10" d="M301.2816,133.423h-21.8325v-8.7677
			h-0.2764c-8.6628,13.4002-32.9981,13.4759-43.2504,1.8963c-5.389-5.6163-8.0835-13.4601-8.0835-23.5337
			c-0.3056-19.8811,12.3686-34.9982,32.2652-34.8227c9.1198,0,15.476,2.9438,19.0687,8.83h0.2764V39.1571h21.8325V133.423z
			 M279.8637,102.4571v-4.7875c0.1155-8.2327-6.0894-14.5946-14.4399-14.4262c-10.7672,0.0456-15.4525,8.6474-15.407,19.2136
			c-0.0656,10.1584,4.693,17.4392,14.8544,17.4732C274.4208,119.9581,280.0165,111.9736,279.8637,102.4571z"/>
		<path fill="#2AACE2" stroke="#2AACE2" strokeWidth="5.5489" stroke-miterlimit="10" d="M383.2224,107.1823h-46.1522
			c0.5693,17.8179,28.2227,15.8442,39.9341,8.8923v14.1784c-6.5405,3.151-15.0386,4.7252-25.4942,4.7252
			c-21.405,0.154-36.1137-10.891-36.0651-32.3965c-0.4801-20.6366,15.5931-34.565,35.3743-34.3864
			c19.7281-0.2175,32.4665,11.2146,32.4031,30.718C383.2224,98.9132,383.2224,107.1823,383.2224,107.1823z M362.979,95.12
			c0-9.1199-4.1007-13.6798-12.298-13.6798c-7.3561-0.0996-12.8499,6.543-13.7489,13.6798H362.979z"/>
		<path fill="#2AACE2" stroke="#2AACE2" strokeWidth="5.5489" stroke-miterlimit="10" d="M481.4698,133.423H455.836
			c0,0-15.4057-22.9433-15.4057-22.9433c-2.0605-3.0666-4.0101-5.8935-6.5297-8.177c-2.1296-1.8912-4.3719-3.022-7.2206-3.0156
			c0,0-6.0095,0-6.0095,0v34.1359h-22.3174V44.2548h35.3741c24.0433,0,36.065,8.0835,36.065,24.2506
			c0.2423,12.8938-10.3342,21.9806-22.247,24.8128v0.2466c6.5255,2.0325,11.27,8.1876,15.1999,13.4927
			C462.745,107.0577,481.4698,133.423,481.4698,133.423z M420.6705,59.3029V84.113c0,0,9.6726,0,9.6726,0
			c8.4059,0.1839,15.9228-4.8198,15.9585-13.1204C446.26,57.519,431.7562,59.3557,420.6705,59.3029z"/>
		<path fill="#2AACE2" stroke="#2AACE2" strokeWidth="5.5489" stroke-miterlimit="10" d="M552.1475,107.1823h-46.1521
			c0.5714,17.8168,28.2224,15.845,39.9341,8.8923v14.1784c-6.5405,3.151-15.0372,4.7252-25.4929,4.7252
			c-21.4069,0.154-36.1133-10.8898-36.0651-32.3965c-0.4797-20.6366,15.5921-34.5651,35.3743-34.3864
			c19.7282-0.2175,32.4661,11.2142,32.4017,30.718C552.1475,98.9132,552.1475,107.1823,552.1475,107.1823z M531.9055,95.12
			c0-9.1199-4.1021-13.6798-12.298-13.6798c-7.3559-0.0995-12.8505,6.5434-13.7503,13.6798H531.9055z"/>
		<path fill="#2AACE2" stroke="#2AACE2" strokeWidth="5.5489" stroke-miterlimit="10" d="M587.2453,126.0236h-0.2764v36.6882
			h-21.8325V69.7491h21.8325v9.5764h0.2764c9.0189-14.0092,33.7296-14.7731,43.9766-2.6428
			c4.996,5.6584,7.4968,13.3599,7.4968,23.1003c0.2643,19.9269-11.8741,35.3695-31.9902,35.1953
			C598.2076,134.9782,591.7131,131.9924,587.2453,126.0236z M586.6248,99.9076v5.0991c-0.1274,8.4073,5.5143,15.0413,14.024,14.9234
			c11.251-0.1022,15.7001-8.7707,15.6848-19.8978c0-11.1927-4.8363-16.789-14.5089-16.789
			C592.4905,83.1695,586.4612,90.5529,586.6248,99.9076z"/>
		<path fill="#2AACE2" stroke="#2AACE2" strokeWidth="5.5489" stroke-miterlimit="10" d="M674.7133,133.423h-21.8325V39.1571
			h21.8325V133.423z"/>
		<path fill="#2AACE2" stroke="#2AACE2" strokeWidth="5.5489" stroke-miterlimit="10" d="M760.4554,69.7491l-28.7415,68.773
			c-8.9737,22.28-25.1777,28.3475-44.2881,23.1926v-15.6685c7.0984,3.8052,17.814,3.3989,21.2119-4.85
			c0.0001,0.0002,3.731-7.8978,3.731-7.8978l-28.7415-63.5493h24.1815c1.8929,6.4604,14.8744,41.1422,15.1294,47.2576h0.2764
			c0.6331-5.296,13.8115-41.3517,15.6143-47.2576H760.4554z"/>
	</g>
</g>
</svg>
