<?xml version="1.0" encoding="UTF-8"?>
<svg xmlns="http://www.w3.org/2000/svg" viewBox="0 0 180 144">
  <g id="Layer_3" data-name="Layer 3">
    <g>
      <path d="m143.25867,93.84221c-1.02539-1.45571-2.16016-2.94479-3.40625-4.4662-1.24414-1.52245-2.55176-2.94485-3.91797-4.26825-1.36719-1.3234-2.7832-2.48117-4.24805-3.47417-1.46484-.99208-2.97852-1.70868-4.54102-2.15029v-.26469c3.56348-.92639,6.79883-2.20519,9.70508-3.83787,2.9043-1.6317,5.38281-3.57318,7.43359-5.82296s3.63672-4.77456,4.76074-7.57624c1.12207-2.80119,1.68457-5.85627,1.68457-9.16482,0-17.2042-12.74414-25.80633-38.23242-25.80633h-9.81769v16.01318h6.66827c10.98633,0,16.47949,4.14716,16.47949,12.44,0,3.97019-1.56348,7.30125-4.6875,9.99165-3.07617,2.64679-7.15381,3.97025-12.23145,3.97025h-10.25391v-16.00868h-23.65723v68.4816h23.65723v-36.32743h6.37207c1.46484,0,2.81982.27598,4.06494.82689,1.24512.55239,2.44092,1.3464,3.58887,2.3821,1.14648,1.03718,2.28174,2.28316,3.40576,3.73887,1.12207,1.45577,2.29395,3.10998,3.51562,4.96276l16.33301,24.41681h27.17285l-19.84863-28.05617Z" fill="#00aeef"/>
      <path d="m143.25867,93.84221c-1.02539-1.45571-2.16016-2.94479-3.40625-4.4662-1.24414-1.52245-2.55176-2.94485-3.91797-4.26825-1.36719-1.3234-2.7832-2.48117-4.24805-3.47417-1.46484-.99208-2.97852-1.70868-4.54102-2.15029v-.26469c3.56348-.92639,6.79883-2.20519,9.70508-3.83787,2.9043-1.6317,5.38281-3.57318,7.43359-5.82296s3.63672-4.77456,4.76074-7.57624c1.12207-2.80119,1.68457-5.85627,1.68457-9.16482,0-17.2042-12.74414-25.80633-38.23242-25.80633h-9.81769v16.01318h6.66827c10.98633,0,16.47949,4.14716,16.47949,12.44,0,3.97019-1.56348,7.30125-4.6875,9.99165-3.07617,2.64679-7.15381,3.97025-12.23145,3.97025h-10.25391v-16.00868h-23.65723v68.4816h23.65723v-36.32743h6.37207c1.46484,0,2.81982.27598,4.06494.82689,1.24512.55239,2.44092,1.3464,3.58887,2.3821,1.14648,1.03718,2.28174,2.28316,3.40576,3.73887,1.12207,1.45577,2.29395,3.10998,3.51562,4.96276l16.33301,24.41681h27.17285l-19.84863-28.05617Z" fill="none" stroke="#00aeef" stroke-miterlimit="10" strokeWidth="4.02125"/>
    </g>
  </g>
  <g id="Layer_2" data-name="Layer 2">
    <path d="m93.65416,44.17012h-29.33371v78.11207h-23.23746V44.17012H11.89272v-17.54353h81.76144v17.54353Z" fill="#fff" stroke="#fff" stroke-miterlimit="10" strokeWidth="3"/>
  </g>
</svg>