<?xml version="1.0" encoding="UTF-8"?>
<svg xmlns="http://www.w3.org/2000/svg" viewBox="0 0 246.909 167.32">
  <g id="Layer_3" data-name="Layer 3">
    <g>
      <path d="m132.866,137.254c-1.025-1.456-2.16-2.945-3.406-4.466-1.244-1.522-2.552-2.945-3.918-4.268-1.367-1.323-2.783-2.481-4.248-3.474-1.465-.992-2.979-1.709-4.541-2.15v-.265c3.563-.926,6.799-2.205,9.705-3.838,2.904-1.632,5.383-3.573,7.434-5.823s3.637-4.775,4.761-7.576c1.122-2.801,1.685-5.856,1.685-9.165,0-17.204-12.744-25.806-38.232-25.806h-9.818v16.013h6.668c10.986,0,16.479,4.147,16.479,12.44,0,3.97-1.563,7.301-4.688,9.992-3.076,2.647-7.154,3.97-12.231,3.97h-10.254v-16.009h-23.657v68.482h23.657v-36.327h6.372c1.465,0,2.82.276,4.065.827,1.245.552,2.441,1.346,3.589,2.382,1.146,1.037,2.282,2.283,3.406,3.739,1.122,1.456,2.294,3.11,3.516,4.963l16.333,24.417h27.173l-19.849-28.056Z" fill="#00aeef"/>
      <path d="m132.866,137.254c-1.025-1.456-2.16-2.945-3.406-4.466-1.244-1.522-2.552-2.945-3.918-4.268-1.367-1.323-2.783-2.481-4.248-3.474-1.465-.992-2.979-1.709-4.541-2.15v-.265c3.563-.926,6.799-2.205,9.705-3.838,2.904-1.632,5.383-3.573,7.434-5.823s3.637-4.775,4.761-7.576c1.122-2.801,1.685-5.856,1.685-9.165,0-17.204-12.744-25.806-38.232-25.806h-9.818v16.013h6.668c10.986,0,16.479,4.147,16.479,12.44,0,3.97-1.563,7.301-4.688,9.992-3.076,2.647-7.154,3.97-12.231,3.97h-10.254v-16.009h-23.657v68.482h23.657v-36.327h6.372c1.465,0,2.82.276,4.065.827,1.245.552,2.441,1.346,3.589,2.382,1.146,1.037,2.282,2.283,3.406,3.739,1.122,1.456,2.294,3.11,3.516,4.963l16.333,24.417h27.173l-19.849-28.056Z" fill="none" stroke="#00aeef" stroke-miterlimit="10" strokeWidth="4.021"/>
    </g>
  </g>
  <g id="Layer_2" data-name="Layer 2">
    <path d="m83.261,87.582h-29.334v78.112h-23.237v-78.112H1.5v-17.544h81.761v17.544Z" fill="#fff" stroke="#fff" stroke-miterlimit="10" strokeWidth="3"/>
  </g>
  <g id="Layer_4" data-name="Layer 4">
    <path d="m182.167,0c17.113.354,35.106,3.849,49.556,13.43,21.064,13.966,19.841,35.132-1.347,48.204-13.092,8.369-28.592,11.001-43.869,12.436-.815.076-1.503.497-2.086,1.119-2.69,2.866-5.777,5.28-8.936,7.595-3.584,2.627-7.408,4.84-11.586,6.424-1.789.678-3.682.951-5.498,1.52-.933.294-1.526-.163-.645-1.073,3.031-4.541,6.419-8.819,8.056-14.109.844-2.726-1.623-2.911-3.921-3.742-13.178-4.764-28.637-7.092-38.642-18.052-9.278-10.164-8.621-23.681.494-33.598C138.649,4.738,161.563.665,182.167,0Z" fill="#fff"/>
    <g>
      <path d="m159.356,44.511c-2.581,2.558-5.724,3.837-9.426,3.837s-6.845-1.278-9.427-3.837c-2.583-2.556-3.873-5.712-3.873-9.463s1.291-6.905,3.873-9.462c2.581-2.557,5.723-3.837,9.427-3.837s6.844,1.279,9.426,3.837,3.873,5.712,3.873,9.462-1.292,6.907-3.873,9.463Zm-16.879-9.463c0,2.241.706,4.068,2.119,5.481,1.412,1.414,3.191,2.119,5.335,2.119,2.119,0,3.884-.705,5.297-2.119,1.437-1.437,2.155-3.264,2.155-5.481s-.719-4.042-2.155-5.48c-1.414-1.412-3.179-2.119-5.297-2.119-2.144,0-3.923.706-5.335,2.119s-2.119,3.239-2.119,5.48Z" fill="#2bace2"/>
      <path d="m181.972,45.571c-1.852,1.851-4.142,2.777-6.87,2.777s-5.018-.926-6.869-2.777c-1.874-1.876-2.812-4.166-2.812-6.869,0-2.679.938-4.956,2.812-6.833,1.876-1.875,4.166-2.812,6.869-2.812s4.993.937,6.87,2.812c1.876,1.876,2.812,4.153,2.812,6.833,0,2.703-.936,4.993-2.812,6.869Zm-11.072-6.869c0,1.267.403,2.301,1.207,3.106.804.804,1.803,1.205,2.995,1.205s2.193-.401,2.997-1.205c.804-.805,1.205-1.84,1.205-3.106s-.401-2.301-1.205-3.105-1.803-1.206-2.997-1.206-2.191.402-2.995,1.206-1.207,1.839-1.207,3.105Z" fill="#2bace2"/>
      <path d="m198.815,29.057c2.388,0,4.445.937,6.175,2.812,1.706,1.852,2.558,4.129,2.558,6.833,0,2.728-.852,5.018-2.558,6.869-1.704,1.851-3.763,2.777-6.175,2.777-2.361,0-4.177-.743-5.442-2.229v9.025h-5.482v-25.576h5.482v1.717c1.266-1.485,3.081-2.228,5.442-2.228Zm-4.237,12.898c.829.804,1.876,1.205,3.142,1.205s2.302-.401,3.106-1.205c.827-.805,1.242-1.889,1.242-3.253s-.416-2.448-1.242-3.252c-.804-.804-1.841-1.206-3.106-1.206s-2.313.402-3.142,1.206c-.804.804-1.205,1.888-1.205,3.252s.401,2.448,1.205,3.253Z" fill="#2bace2"/>
      <path d="m215.475,34.902c0,.317.256.591.768.822.512.232,1.316.494,2.411.786,3.897.853,5.832,2.801,5.809,5.846,0,1.973-.73,3.471-2.193,4.493-1.486.999-3.287,1.499-5.406,1.499-3.849,0-6.466-1.448-7.856-4.349l4.75-2.703c.487,1.438,1.522,2.155,3.106,2.155,1.316,0,1.973-.378,1.973-1.131,0-.535-1.06-1.072-3.18-1.609-.779-.219-1.448-.444-2.009-.676s-1.163-.56-1.809-.986c-.644-.426-1.138-.98-1.48-1.662-.34-.682-.51-1.462-.51-2.339,0-1.875.68-3.349,2.044-4.42,1.364-1.047,3.07-1.571,5.117-1.571,3.19,0,5.564,1.303,7.123,3.909l-4.676,2.521c-.586-1.071-1.402-1.608-2.447-1.608-1.024,0-1.536.342-1.536,1.023Z" fill="#2bace2"/>
      <path d="m233.596,44.877c0,.951-.342,1.767-1.024,2.449-.682.68-1.496,1.022-2.447,1.022s-1.765-.342-2.447-1.022c-.682-.682-1.024-1.499-1.024-2.449s.342-1.765,1.024-2.447,1.499-1.024,2.447-1.024,1.765.342,2.447,1.024,1.024,1.499,1.024,2.447Z" fill="#2bace2"/>
    </g>
  </g>
</svg>