<svg width="18" height="20" viewBox="0 0 18 20" fill="none" xmlns="http://www.w3.org/2000/svg">
<path fillRule="evenodd" clipRule="evenodd" d="M13.5829 4.682C14.9329 4.682 16.3639 5.425 17.3829 6.71C14.0429 8.561 14.5859 13.384 17.9609 14.673C17.4959 15.713 17.2739 16.178 16.6759 17.099C15.8409 18.383 14.6659 19.983 13.2069 19.997C11.9119 20.009 11.5789 19.144 9.82095 19.154C8.06295 19.164 7.69595 20.012 6.40095 20C4.94295 19.986 3.82795 18.542 2.99295 17.257C0.658948 13.665 0.414948 9.45 1.85495 7.21C2.87795 5.616 4.49095 4.683 6.00895 4.683C7.55395 4.683 8.52495 5.54 9.80295 5.54C11.0429 5.54 11.7969 4.682 13.5829 4.682ZM13.1909 0C13.3709 1.215 12.8769 2.405 12.2279 3.247C11.5329 4.149 10.3359 4.848 9.17795 4.812C8.96795 3.649 9.50995 2.452 10.1679 1.645C10.8909 0.755 12.1309 0.074 13.1909 0Z" fill="black"/>
</svg>
