<svg width="28" height="27" viewBox="0 0 28 27" fill="none" xmlns="http://www.w3.org/2000/svg">
<path d="M21.866 20.687C21.5193 19.6203 20.5193 18.8337 19.3327 18.8337H17.9993V14.8337C17.9993 14.48 17.8589 14.1409 17.6088 13.8908C17.3588 13.6408 17.0196 13.5003 16.666 13.5003H8.66602V10.8337H11.3327C11.6863 10.8337 12.0254 10.6932 12.2755 10.4431C12.5255 10.1931 12.666 9.85395 12.666 9.50033V6.83366H15.3327C16.0399 6.83366 16.7182 6.55271 17.2183 6.05261C17.7184 5.55251 17.9993 4.87424 17.9993 4.16699V3.62033C19.5946 4.26348 21.0103 5.28362 22.1252 6.59344C23.2402 7.90325 24.0211 9.46372 24.4011 11.1413C24.7812 12.8188 24.7491 14.5635 24.3076 16.2259C23.8661 17.8884 23.0283 19.4191 21.866 20.687ZM12.666 24.0737C7.39935 23.4203 3.33268 18.9403 3.33268 13.5003C3.33268 12.6737 3.43935 11.8737 3.61268 11.1137L9.99935 17.5003V18.8337C9.99935 19.5409 10.2803 20.2192 10.7804 20.7193C11.2805 21.2194 11.9588 21.5003 12.666 21.5003M13.9993 0.166992C12.2484 0.166992 10.5146 0.511869 8.8969 1.18193C7.27923 1.85199 5.80937 2.83412 4.57126 4.07223C2.07077 6.57272 0.666016 9.9641 0.666016 13.5003C0.666016 17.0365 2.07077 20.4279 4.57126 22.9284C5.80937 24.1665 7.27923 25.1487 8.8969 25.8187C10.5146 26.4888 12.2484 26.8337 13.9993 26.8337C17.5356 26.8337 20.927 25.4289 23.4274 22.9284C25.9279 20.4279 27.3327 17.0365 27.3327 13.5003C27.3327 11.7494 26.9878 10.0156 26.3177 8.39788C25.6477 6.7802 24.6656 5.31035 23.4274 4.07223C22.1893 2.83412 20.7195 1.85199 19.1018 1.18193C17.4841 0.511869 15.7503 0.166992 13.9993 0.166992Z" fill="#00ADEF"/>
</svg>
