<svg width="38" height="38" viewBox="0 0 38 38" fill="none" xmlns="http://www.w3.org/2000/svg">
<path d="M10.6667 31.5H13.7917V27.3333H17.9583V24.2083H13.7917V20.0417H10.6667V24.2083H6.5V27.3333H10.6667V31.5ZM21.0833 29.9375H31.5V26.8125H21.0833V29.9375ZM21.0833 24.7292H31.5V21.6042H21.0833V24.7292ZM23.375 16.8125L26.2917 13.8958L29.2083 16.8125L31.3958 14.625L28.4792 11.6042L31.3958 8.6875L29.2083 6.5L26.2917 9.41667L23.375 6.5L21.1875 8.6875L24.1042 11.6042L21.1875 14.625L23.375 16.8125ZM7.02084 13.1667H17.4375V10.0417H7.02084V13.1667ZM4.41667 37.75C3.27084 37.75 2.28959 37.3424 1.47292 36.5271C0.656253 35.7118 0.248615 34.7306 0.250004 33.5833V4.41667C0.250004 3.27083 0.658337 2.29028 1.475 1.475C2.29167 0.659722 3.27223 0.251389 4.41667 0.25H33.5833C34.7292 0.25 35.7104 0.658333 36.5271 1.475C37.3438 2.29167 37.7514 3.27222 37.75 4.41667V33.5833C37.75 34.7292 37.3424 35.7104 36.5271 36.5271C35.7118 37.3438 34.7306 37.7514 33.5833 37.75H4.41667Z" fill="#00ADEF"/>
</svg>
