<svg width="33" height="30" viewBox="0 0 33 30" fill="none" xmlns="http://www.w3.org/2000/svg">
<path d="M28.7529 17.625C28.7529 17.3266 28.6344 17.0405 28.4234 16.8295C28.2124 16.6185 27.9263 16.5 27.6279 16.5H23.1279C22.8296 16.5 22.5434 16.6185 22.3324 16.8295C22.1215 17.0405 22.0029 17.3266 22.0029 17.625V27.75H19.7529V3.375C19.7529 2.283 19.7499 1.575 19.6809 1.056C19.6149 0.5685 19.5084 0.4155 19.4229 0.33C19.3374 0.2445 19.1844 0.138 18.6969 0.0720001C18.1764 0.00300015 17.4699 0 16.3779 0C15.2859 0 14.5779 0.00300015 14.0589 0.0720001C13.5714 0.138 13.4184 0.2445 13.3329 0.33C13.2474 0.4155 13.1409 0.5685 13.0749 1.056C13.0059 1.5765 13.0029 2.283 13.0029 3.375V27.75H10.7529V10.125C10.7529 9.82663 10.6344 9.54048 10.4234 9.32951C10.2124 9.11853 9.9263 9 9.62793 9H5.12793C4.82956 9 4.54341 9.11853 4.33243 9.32951C4.12146 9.54048 4.00293 9.82663 4.00293 10.125V27.75H1.37793C1.07956 27.75 0.793413 27.8685 0.582435 28.0795C0.371456 28.2905 0.25293 28.5766 0.25293 28.875C0.25293 29.1734 0.371456 29.4595 0.582435 29.6705C0.793413 29.8815 1.07956 30 1.37793 30H31.3779C31.6763 30 31.9624 29.8815 32.1734 29.6705C32.3844 29.4595 32.5029 29.1734 32.5029 28.875C32.5029 28.5766 32.3844 28.2905 32.1734 28.0795C31.9624 27.8685 31.6763 27.75 31.3779 27.75H28.7529V17.625Z" fill="white"/>
</svg>
