<svg width="30" height="28" viewBox="0 0 30 28" fill="none" xmlns="http://www.w3.org/2000/svg">
<path d="M28.8121 2.94497L26.8021 0.934966C26.2471 0.349966 25.2721 0.349966 24.6871 0.934966L11.2471 14.375L15.3721 18.5L28.8121 5.05997C29.3971 4.47497 29.3971 3.49997 28.8121 2.94497ZM8.24707 17C7.0536 17 5.909 17.4741 5.06509 18.318C4.22118 19.1619 3.74707 20.3065 3.74707 21.5C3.74707 23.465 2.00707 24.5 0.74707 24.5C2.12707 26.33 4.49707 27.5 6.74707 27.5C8.33837 27.5 9.86449 26.8678 10.9897 25.7426C12.1149 24.6174 12.7471 23.0913 12.7471 21.5C12.7471 20.3065 12.273 19.1619 11.4291 18.318C10.5851 17.4741 9.44054 17 8.24707 17Z" fill="white"/>
</svg>
