<svg width="46" height="46" viewBox="0 0 46 46" fill="none" xmlns="http://www.w3.org/2000/svg">
<path d="M0.875 23.1107C0.875 23.7738 1.13839 24.4096 1.60723 24.8785C2.07607 25.3473 2.71196 25.6107 3.375 25.6107H18.375C19.038 25.6107 19.6739 25.3473 20.1428 24.8785C20.6116 24.4096 20.875 23.7738 20.875 23.1107V3.11072C20.875 2.44768 20.6116 1.81179 20.1428 1.34295C19.6739 0.87411 19.038 0.610718 18.375 0.610718H3.375C2.71196 0.610718 2.07607 0.87411 1.60723 1.34295C1.13839 1.81179 0.875 2.44768 0.875 3.11072V23.1107ZM0.875 43.1107C0.875 43.7738 1.13839 44.4096 1.60723 44.8785C2.07607 45.3473 2.71196 45.6107 3.375 45.6107H18.375C19.038 45.6107 19.6739 45.3473 20.1428 44.8785C20.6116 44.4096 20.875 43.7738 20.875 43.1107V33.1107C20.875 32.4477 20.6116 31.8118 20.1428 31.343C19.6739 30.8741 19.038 30.6107 18.375 30.6107H3.375C2.71196 30.6107 2.07607 30.8741 1.60723 31.343C1.13839 31.8118 0.875 32.4477 0.875 33.1107V43.1107ZM25.875 43.1107C25.875 43.7738 26.1384 44.4096 26.6072 44.8785C27.0761 45.3473 27.712 45.6107 28.375 45.6107H43.375C44.038 45.6107 44.6739 45.3473 45.1428 44.8785C45.6116 44.4096 45.875 43.7738 45.875 43.1107V23.1107C45.875 22.4477 45.6116 21.8118 45.1428 21.343C44.6739 20.8741 44.038 20.6107 43.375 20.6107H28.375C27.712 20.6107 27.0761 20.8741 26.6072 21.343C26.1384 21.8118 25.875 22.4477 25.875 23.1107V43.1107ZM28.375 0.610718C27.712 0.610718 27.0761 0.87411 26.6072 1.34295C26.1384 1.81179 25.875 2.44768 25.875 3.11072V13.1107C25.875 13.7738 26.1384 14.4096 26.6072 14.8785C27.0761 15.3473 27.712 15.6107 28.375 15.6107H43.375C44.038 15.6107 44.6739 15.3473 45.1428 14.8785C45.6116 14.4096 45.875 13.7738 45.875 13.1107V3.11072C45.875 2.44768 45.6116 1.81179 45.1428 1.34295C44.6739 0.87411 44.038 0.610718 43.375 0.610718H28.375Z" fill="#00ADEF"/>
</svg>
