<svg width="20" height="21" viewBox="0 0 20 21" fill="none" xmlns="http://www.w3.org/2000/svg">
<path d="M18.25 4H14.875V2.875C14.875 2.17881 14.5984 1.51113 14.1062 1.01884C13.6139 0.526562 12.9462 0.25 12.25 0.25H7.75C7.05381 0.25 6.38613 0.526562 5.89384 1.01884C5.40156 1.51113 5.125 2.17881 5.125 2.875V4H1.75C1.45163 4 1.16548 4.11853 0.954505 4.3295C0.743526 4.54048 0.625 4.82663 0.625 5.125C0.625 5.42337 0.743526 5.70952 0.954505 5.9205C1.16548 6.13147 1.45163 6.25 1.75 6.25H2.125V19C2.125 19.4973 2.32254 19.9742 2.67417 20.3258C3.02581 20.6775 3.50272 20.875 4 20.875H16C16.4973 20.875 16.9742 20.6775 17.3258 20.3258C17.6775 19.9742 17.875 19.4973 17.875 19V6.25H18.25C18.5484 6.25 18.8345 6.13147 19.0455 5.9205C19.2565 5.70952 19.375 5.42337 19.375 5.125C19.375 4.82663 19.2565 4.54048 19.0455 4.3295C18.8345 4.11853 18.5484 4 18.25 4ZM7.375 2.875C7.375 2.77554 7.41451 2.68016 7.48483 2.60984C7.55516 2.53951 7.65054 2.5 7.75 2.5H12.25C12.3495 2.5 12.4448 2.53951 12.5152 2.60984C12.5855 2.68016 12.625 2.77554 12.625 2.875V4H7.375V2.875ZM15.625 18.625H4.375V6.25H15.625V18.625ZM8.875 9.25V15.25C8.875 15.5484 8.75647 15.8345 8.5455 16.0455C8.33452 16.2565 8.04837 16.375 7.75 16.375C7.45163 16.375 7.16548 16.2565 6.9545 16.0455C6.74353 15.8345 6.625 15.5484 6.625 15.25V9.25C6.625 8.95163 6.74353 8.66548 6.9545 8.4545C7.16548 8.24353 7.45163 8.125 7.75 8.125C8.04837 8.125 8.33452 8.24353 8.5455 8.4545C8.75647 8.66548 8.875 8.95163 8.875 9.25ZM13.375 9.25V15.25C13.375 15.5484 13.2565 15.8345 13.0455 16.0455C12.8345 16.2565 12.5484 16.375 12.25 16.375C11.9516 16.375 11.6655 16.2565 11.4545 16.0455C11.2435 15.8345 11.125 15.5484 11.125 15.25V9.25C11.125 8.95163 11.2435 8.66548 11.4545 8.4545C11.6655 8.24353 11.9516 8.125 12.25 8.125C12.5484 8.125 12.8345 8.24353 13.0455 8.4545C13.2565 8.66548 13.375 8.95163 13.375 9.25Z" fill="white"/>
</svg>
