<svg width="24" height="25" viewBox="0 0 24 25" fill="none" xmlns="http://www.w3.org/2000/svg">
<path fillRule="evenodd" clipRule="evenodd" d="M17.5086 4.8508C15.9804 3.75088 14.1578 3.1338 12.2757 3.07909C10.3936 3.02437 8.53826 3.53452 6.94872 4.54379C5.35918 5.55307 4.1083 7.01523 3.35727 8.74185C2.60624 10.4685 2.38947 12.3804 2.7349 14.2314C2.79181 14.5639 2.71573 14.9055 2.52308 15.1824C2.33043 15.4594 2.03664 15.6495 1.70507 15.7119C1.3735 15.7742 1.03073 15.7036 0.750675 15.5155C0.470623 15.3274 0.275734 15.0367 0.208041 14.7062C-0.238692 12.3154 0.0517193 9.84529 1.04078 7.62329C2.02984 5.40128 3.67084 3.53233 5.74625 2.26418C7.82166 0.996029 10.2335 0.388564 12.662 0.52231C15.0905 0.656056 17.421 1.5247 19.3446 3.01309L20.3938 1.96394C20.5135 1.84387 20.6662 1.76202 20.8326 1.72876C20.9989 1.69551 21.1713 1.71234 21.328 1.77713C21.4848 1.84192 21.6188 1.95175 21.7131 2.09273C21.8074 2.2337 21.8577 2.39948 21.8578 2.56909V6.49994C21.8578 6.72727 21.7674 6.94529 21.6067 7.10604C21.446 7.26678 21.2279 7.35709 21.0006 7.35709H17.0698C16.9005 7.35671 16.7352 7.30624 16.5945 7.21203C16.4539 7.11782 16.3444 6.98409 16.2796 6.8277C16.2149 6.67131 16.198 6.49927 16.2309 6.33325C16.2638 6.16723 16.3451 6.01467 16.4646 5.8948L17.5086 4.8508ZM22.2932 9.26852C22.6283 9.20532 22.9747 9.27782 23.2564 9.47008C23.538 9.66233 23.7317 9.95858 23.7949 10.2937C24.242 12.6848 23.9518 15.1553 22.9627 17.3776C21.9736 19.6 20.3323 21.4693 18.2566 22.7375C16.1808 24.0058 13.7686 24.6131 11.3397 24.479C8.9109 24.345 6.58018 23.4758 4.65661 21.9868L3.60747 23.0377C3.48759 23.1578 3.33473 23.2397 3.16825 23.2729C3.00178 23.3061 2.8292 23.2891 2.67239 23.2241C2.51558 23.1591 2.3816 23.049 2.28744 22.9078C2.19327 22.7666 2.14317 22.6006 2.14347 22.4308V18.4999C2.14347 18.2726 2.23378 18.0546 2.39452 17.8939C2.55527 17.7331 2.77328 17.6428 3.00061 17.6428H6.93147C7.10122 17.6425 7.26724 17.6926 7.40848 17.7868C7.54971 17.8809 7.65981 18.0149 7.72481 18.1717C7.78982 18.3285 7.80679 18.5011 7.77359 18.6676C7.74039 18.8341 7.65851 18.9869 7.53833 19.1068L6.49261 20.1508C8.02083 21.2507 9.84342 21.8678 11.7255 21.9225C13.6076 21.9772 15.463 21.4671 17.0525 20.4578C18.642 19.4485 19.8929 17.9864 20.644 16.2598C21.395 14.5331 21.6118 12.6212 21.2663 10.7702C21.2351 10.6041 21.2369 10.4334 21.2717 10.2679C21.3065 10.1025 21.3736 9.94552 21.4691 9.80603C21.5647 9.66654 21.6868 9.54727 21.8285 9.45503C21.9702 9.3628 22.1287 9.29942 22.2949 9.26852H22.2932ZM13.0755 6.76909C13.0755 6.42809 12.94 6.10107 12.6989 5.85995C12.4578 5.61883 12.1307 5.48337 11.7898 5.48337C11.4488 5.48337 11.1217 5.61883 10.8806 5.85995C10.6395 6.10107 10.504 6.42809 10.504 6.76909V7.35709C9.83383 7.46797 9.22321 7.80898 8.77726 8.32144C8.33132 8.8339 8.07792 9.48576 8.06066 10.1649C8.04341 10.844 8.26339 11.5079 8.68274 12.0423C9.1021 12.5767 9.69461 12.9483 10.3583 13.0931L12.5183 13.5645C12.6464 13.597 12.7585 13.6746 12.8339 13.7831C12.9093 13.8917 12.943 14.0237 12.9289 14.1551C12.9147 14.2865 12.8535 14.4083 12.7567 14.4983C12.6599 14.5882 12.5338 14.6401 12.4018 14.6445H11.1778C11.0651 14.6441 10.9553 14.609 10.8633 14.5439C10.7713 14.4789 10.7015 14.3871 10.6635 14.2811C10.6072 14.1218 10.5201 13.9752 10.4071 13.8496C10.2942 13.724 10.1576 13.6218 10.0052 13.549C9.85277 13.4762 9.68749 13.4341 9.5188 13.4251C9.35012 13.4162 9.18132 13.4405 9.02204 13.4968C8.86277 13.5531 8.71614 13.6402 8.59052 13.7531C8.46491 13.8661 8.36277 14.0027 8.28995 14.1551C8.21712 14.3075 8.17503 14.4728 8.16607 14.6415C8.15712 14.8102 8.18147 14.979 8.23775 15.1382C8.41443 15.637 8.71491 16.0827 9.11102 16.4335C9.50713 16.7844 9.98587 17.0288 10.5023 17.1439V17.7645C10.5023 18.1055 10.6378 18.4325 10.8789 18.6737C11.12 18.9148 11.447 19.0502 11.788 19.0502C12.129 19.0502 12.4561 18.9148 12.6972 18.6737C12.9383 18.4325 13.0738 18.1055 13.0738 17.7645V17.1439C13.7662 16.9887 14.3851 16.6021 14.8283 16.0478C15.2715 15.4935 15.5124 14.8047 15.5114 14.0951C15.5104 13.3854 15.2675 12.6973 14.8228 12.1443C14.3781 11.5912 13.7581 11.2063 13.0652 11.0531L10.9052 10.5799C10.8214 10.561 10.7474 10.5119 10.6975 10.442C10.6476 10.3721 10.6251 10.2863 10.6345 10.2008C10.6438 10.1154 10.6842 10.0364 10.7481 9.97894C10.8119 9.92144 10.8947 9.88946 10.9806 9.88909H12.4C12.5129 9.88851 12.6232 9.92323 12.7154 9.98839C12.8076 10.0536 12.8772 10.1459 12.9143 10.2525C13.028 10.5742 13.2648 10.8375 13.5726 10.9846C13.725 11.0574 13.8903 11.0995 14.059 11.1085C14.2277 11.1174 14.3965 11.0931 14.5558 11.0368C14.715 10.9805 14.8617 10.8934 14.9873 10.7805C15.1129 10.6675 15.215 10.5309 15.2878 10.3785C15.3607 10.2261 15.4028 10.0608 15.4117 9.89214C15.4207 9.72345 15.3963 9.55465 15.34 9.39537C15.1638 8.89606 14.8632 8.44989 14.4667 8.09897C14.0702 7.74804 13.5908 7.50393 13.0738 7.38966V6.77252L13.0755 6.76909Z" fill="#00ADEF"/>
</svg>
