<svg width="52" height="50" viewBox="0 0 52 50" fill="none" xmlns="http://www.w3.org/2000/svg">
<path d="M43.0001 31.7357C41.6576 31.7351 40.3347 32.0566 39.1422 32.6732L34.129 28.7732C34.4015 27.9637 34.5477 27.1171 34.5626 26.2631L36.9883 25.4568C38.3604 26.85 40.1736 27.7234 42.1183 27.9277C44.0629 28.1321 46.0181 27.6547 47.6498 26.5771C49.2814 25.4996 50.4882 23.8888 51.0637 22.0201C51.6393 20.1514 51.548 18.1408 50.8054 16.332C50.0627 14.5231 48.7149 13.0284 46.9923 12.1032C45.2697 11.178 43.2793 10.8798 41.3612 11.2596C39.4431 11.6394 37.7164 12.6736 36.4764 14.1855C35.2363 15.6973 34.5598 17.5929 34.5626 19.5482C34.5626 19.8084 34.5766 20.0662 34.6001 20.3217L32.7766 20.9287C31.9885 19.916 30.9797 19.0963 29.8271 18.5322C28.6745 17.9681 27.4083 17.6743 26.1251 17.6732C25.8907 17.6732 25.6844 17.6732 25.4665 17.7013L24.4235 15.3576C25.847 14.0074 26.7555 12.2034 26.9927 10.2558C27.2299 8.30821 26.781 6.33884 25.7231 4.68647C24.6653 3.03409 23.0647 1.80202 21.1967 1.2022C19.3286 0.60238 17.3099 0.672306 15.4879 1.39995C13.6658 2.1276 12.1543 3.46747 11.2133 5.18908C10.2724 6.91069 9.96077 8.9064 10.3322 10.8329C10.7036 12.7594 11.7347 14.4963 13.2483 15.7447C14.7618 16.9931 16.6631 17.6751 18.6251 17.6732C18.8594 17.6732 19.0657 17.6732 19.2837 17.6451L20.3266 19.9888C19.091 21.1553 18.2374 22.6684 17.878 24.3292C17.5187 25.99 17.6704 27.7206 18.3133 29.2935L13.3258 33.7256C11.5832 32.7636 9.55667 32.4488 7.60435 32.8366C5.65203 33.2244 3.89968 34.2899 2.65703 35.8449C1.41439 37.3998 0.761475 39.344 0.813698 41.3337C0.865921 43.3235 1.61992 45.2308 2.94242 46.7184C4.26491 48.206 6.07075 49.1781 8.04072 49.463C10.0107 49.7479 12.018 49.3271 13.7077 48.2751C15.3974 47.2231 16.6609 45.6076 17.2746 43.7141C17.8884 41.8207 17.813 39.7712 17.0618 37.9279L22.0493 33.4959C23.3787 34.2315 24.8824 34.5936 26.4009 34.5436C27.9194 34.4937 29.3961 34.0336 30.6743 33.2123L35.2657 36.7888C34.5368 38.4534 34.3648 40.3088 34.7752 42.0789C35.1856 43.8491 36.1566 45.4395 37.5436 46.6135C38.9306 47.7874 40.6595 48.4823 42.4732 48.5946C44.2869 48.7069 46.0883 48.2307 47.6096 47.2368C49.1308 46.2429 50.2905 44.7845 50.9162 43.0785C51.5419 41.3724 51.6001 39.51 51.0822 37.7683C50.5642 36.0265 49.4978 34.4985 48.0416 33.4116C46.5854 32.3246 44.8172 31.7369 43.0001 31.7357ZM43.0001 16.7357C43.5563 16.7357 44.1001 16.9007 44.5626 17.2097C45.0251 17.5187 45.3856 17.958 45.5985 18.4719C45.8113 18.9858 45.867 19.5513 45.7585 20.0969C45.65 20.6425 45.3821 21.1436 44.9888 21.537C44.5955 21.9303 44.0943 22.1982 43.5488 22.3067C43.0032 22.4152 42.4377 22.3595 41.9238 22.1466C41.4098 21.9338 40.9706 21.5733 40.6616 21.1108C40.3525 20.6482 40.1876 20.1045 40.1876 19.5482C40.1876 18.8023 40.4839 18.0869 41.0113 17.5595C41.5388 17.032 42.2541 16.7357 43.0001 16.7357ZM15.8126 9.23571C15.8126 8.67946 15.9775 8.13569 16.2866 7.67317C16.5956 7.21066 17.0348 6.85017 17.5488 6.6373C18.0627 6.42443 18.6282 6.36874 19.1738 6.47726C19.7193 6.58578 20.2205 6.85364 20.6138 7.24698C21.0071 7.64031 21.275 8.14145 21.3835 8.68702C21.492 9.2326 21.4363 9.79809 21.2235 10.312C21.0106 10.8259 20.6501 11.2652 20.1876 11.5742C19.7251 11.8833 19.1813 12.0482 18.6251 12.0482C17.8791 12.0482 17.1638 11.7519 16.6363 11.2245C16.1089 10.697 15.8126 9.98164 15.8126 9.23571ZM9.25006 43.9232C8.6938 43.9232 8.15003 43.7583 7.68752 43.4492C7.22501 43.1402 6.86452 42.7009 6.65165 42.187C6.43878 41.6731 6.38308 41.1076 6.4916 40.562C6.60012 40.0165 6.86799 39.5153 7.26132 39.122C7.65466 38.7286 8.1558 38.4608 8.70137 38.3523C9.24694 38.2437 9.81244 38.2994 10.3264 38.5123C10.8403 38.7252 11.2795 39.0857 11.5886 39.5482C11.8976 40.0107 12.0626 40.5545 12.0626 41.1107C12.0626 41.8566 11.7662 42.572 11.2388 43.0994C10.7114 43.6269 9.99598 43.9232 9.25006 43.9232ZM23.3126 26.1107C23.3126 25.5545 23.4775 25.0107 23.7866 24.5482C24.0956 24.0857 24.5348 23.7252 25.0488 23.5123C25.5627 23.2994 26.1282 23.2437 26.6738 23.3523C27.2193 23.4608 27.7205 23.7286 28.1138 24.122C28.5071 24.5153 28.775 25.0165 28.8835 25.562C28.992 26.1076 28.9363 26.6731 28.7235 27.187C28.5106 27.7009 28.1501 28.1402 27.6876 28.4492C27.2251 28.7583 26.6813 28.9232 26.1251 28.9232C25.3791 28.9232 24.6638 28.6269 24.1363 28.0995C23.6089 27.572 23.3126 26.8566 23.3126 26.1107ZM43.0001 42.9857C42.4438 42.9857 41.9 42.8208 41.4375 42.5117C40.975 42.2027 40.6145 41.7634 40.4017 41.2495C40.1888 40.7356 40.1331 40.1701 40.2416 39.6245C40.3501 39.079 40.618 38.5778 41.0113 38.1845C41.4047 37.7911 41.9058 37.5233 42.4514 37.4148C42.9969 37.3062 43.5624 37.3619 44.0764 37.5748C44.5903 37.7877 45.0295 38.1482 45.3386 38.6107C45.6476 39.0732 45.8126 39.617 45.8126 40.1732C45.8126 40.9191 45.5162 41.6345 44.9888 42.1619C44.4614 42.6894 43.746 42.9857 43.0001 42.9857Z" fill="#00ADEF"/>
</svg>
