<svg width="41" height="46" viewBox="0 0 41 46" fill="none" xmlns="http://www.w3.org/2000/svg">
<path d="M25.625 23.1107V42.8107C25.725 43.5607 25.475 44.3607 24.9 44.8857C24.6687 45.1175 24.394 45.3013 24.0916 45.4268C23.7891 45.5522 23.4649 45.6168 23.1375 45.6168C22.8101 45.6168 22.4859 45.5522 22.1835 45.4268C21.881 45.3013 21.6063 45.1175 21.375 44.8857L16.35 39.8607C16.0775 39.5941 15.8703 39.268 15.7445 38.9081C15.6188 38.5482 15.5779 38.1641 15.625 37.7857V23.1107H15.55L1.15002 4.66072C0.744043 4.13954 0.560857 3.47886 0.640492 2.82304C0.720128 2.16722 1.05611 1.56958 1.57502 1.16072C2.05002 0.810718 2.57502 0.610718 3.12502 0.610718H38.125C38.675 0.610718 39.2 0.810718 39.675 1.16072C40.1939 1.56958 40.5299 2.16722 40.6096 2.82304C40.6892 3.47886 40.506 4.13954 40.1 4.66072L25.7 23.1107H25.625Z" fill="#00ADEF"/>
</svg>
