<svg width="27" height="27" viewBox="0 0 27 27" fill="none" xmlns="http://www.w3.org/2000/svg">
<path d="M19.3107 16.1665C19.4174 15.2865 19.4974 14.4065 19.4974 13.4998C19.4974 12.5932 19.4174 11.7132 19.3107 10.8332H23.8174C24.0307 11.6865 24.1641 12.5798 24.1641 13.4998C24.1641 14.4198 24.0307 15.3132 23.8174 16.1665M16.9507 23.5798C17.7507 22.0998 18.3641 20.4998 18.7907 18.8332H22.7241C21.4323 21.0575 19.3829 22.7425 16.9507 23.5798ZM16.6174 16.1665H10.3774C10.2441 15.2865 10.1641 14.4065 10.1641 13.4998C10.1641 12.5932 10.2441 11.6998 10.3774 10.8332H16.6174C16.7374 11.6998 16.8307 12.5932 16.8307 13.4998C16.8307 14.4065 16.7374 15.2865 16.6174 16.1665ZM13.4974 24.1132C12.3907 22.5132 11.4974 20.7398 10.9507 18.8332H16.0441C15.4974 20.7398 14.6041 22.5132 13.4974 24.1132ZM8.16406 8.1665H4.27073C5.54892 5.93588 7.59694 4.24816 10.0307 3.41984C9.23073 4.89984 8.63073 6.49984 8.16406 8.1665ZM4.27073 18.8332H8.16406C8.63073 20.4998 9.23073 22.0998 10.0307 23.5798C7.60175 22.7429 5.55645 21.0574 4.27073 18.8332ZM3.1774 16.1665C2.96406 15.3132 2.83073 14.4198 2.83073 13.4998C2.83073 12.5798 2.96406 11.6865 3.1774 10.8332H7.68406C7.5774 11.7132 7.4974 12.5932 7.4974 13.4998C7.4974 14.4065 7.5774 15.2865 7.68406 16.1665M13.4974 2.87317C14.6041 4.47317 15.4974 6.25984 16.0441 8.1665H10.9507C11.4974 6.25984 12.3907 4.47317 13.4974 2.87317ZM22.7241 8.1665H18.7907C18.3728 6.51532 17.7549 4.92131 16.9507 3.41984C19.4041 4.25984 21.4441 5.95317 22.7241 8.1665ZM13.4974 0.166504C6.12406 0.166504 0.164062 6.1665 0.164062 13.4998C0.164062 17.0361 1.56882 20.4274 4.06931 22.9279C5.30742 24.166 6.77727 25.1482 8.39495 25.8182C10.0126 26.4883 11.7464 26.8332 13.4974 26.8332C17.0336 26.8332 20.425 25.4284 22.9255 22.9279C25.426 20.4274 26.8307 17.0361 26.8307 13.4998C26.8307 11.7489 26.4859 10.0151 25.8158 8.39739C25.1457 6.77972 24.1636 5.30986 22.9255 4.07175C21.6874 2.83363 20.2175 1.85151 18.5998 1.18144C16.9822 0.511381 15.2484 0.166504 13.4974 0.166504Z" fill="#808080"/>
</svg>
