<svg width="21" height="20" viewBox="0 0 21 20" fill="none" xmlns="http://www.w3.org/2000/svg">
<g clip-path="url(#clip0_437_2051)">
<path d="M7.42815 0.657779C5.42984 1.35101 3.7065 2.66679 2.51126 4.41184C1.31602 6.1569 0.711883 8.23925 0.787588 10.353C0.863293 12.4668 1.61485 14.5006 2.93186 16.1557C4.24887 17.8108 6.06193 18.9999 8.10471 19.5484C9.76084 19.9757 11.496 19.9945 13.161 19.6031C14.6693 19.2643 16.0637 18.5396 17.2078 17.5C18.3986 16.3849 19.2629 14.9663 19.7078 13.3968C20.1915 11.6901 20.2775 9.89517 19.9594 8.14997H10.6594V12.0078H16.0453C15.9377 12.6231 15.707 13.2103 15.3671 13.7344C15.0272 14.2585 14.5851 14.7086 14.0672 15.0578C13.4095 15.4928 12.6681 15.7855 11.8906 15.9172C11.1109 16.0621 10.311 16.0621 9.53127 15.9172C8.74094 15.7538 7.9933 15.4276 7.33596 14.9593C6.27994 14.2118 5.48702 13.1498 5.07033 11.925C4.64661 10.6771 4.64661 9.32435 5.07033 8.07653C5.36694 7.20187 5.85726 6.40549 6.50471 5.74684C7.24563 4.97926 8.18367 4.43059 9.21589 4.16102C10.2481 3.89146 11.3346 3.91142 12.3563 4.21872C13.1543 4.4637 13.8842 4.89174 14.4875 5.46872C15.0948 4.86455 15.7011 4.25882 16.3063 3.65153C16.6188 3.32497 16.9594 3.01403 17.2672 2.67965C16.3462 1.82259 15.2651 1.15568 14.086 0.717154C11.9386 -0.0625494 9.58905 -0.0835031 7.42815 0.657779Z" fill="white"/>
<path d="M7.42852 0.657806C9.58924 -0.08398 11.9388 -0.0635778 14.0863 0.715618C15.2657 1.15712 16.3463 1.82724 17.266 2.68749C16.9535 3.02187 16.6238 3.33437 16.3051 3.65937C15.6988 4.26458 15.0931 4.8677 14.4879 5.46874C13.8845 4.89177 13.1547 4.46373 12.3566 4.21874C11.3354 3.91037 10.2489 3.88926 9.21636 4.15772C8.18386 4.42618 7.24525 4.97384 6.50352 5.74062C5.85607 6.39927 5.36574 7.19564 5.06914 8.07031L1.83008 5.56249C2.98947 3.26337 4.99687 1.50472 7.42852 0.657806Z" fill="#E33629"/>
<path d="M0.971089 8.04688C1.14518 7.18405 1.43422 6.34848 1.83046 5.5625L5.06953 8.07656C4.6458 9.32438 4.6458 10.6772 5.06953 11.925C3.99036 12.7583 2.91067 13.5958 1.83046 14.4375C0.838512 12.463 0.535984 10.2133 0.971089 8.04688Z" fill="#F8BD00"/>
<path d="M10.6589 8.14844H19.9589C20.277 9.89365 20.191 11.6885 19.7073 13.3953C19.2624 14.9648 18.3981 16.3834 17.2073 17.4984C16.162 16.6828 15.112 15.8734 14.0667 15.0578C14.585 14.7082 15.0273 14.2576 15.3672 13.733C15.7071 13.2084 15.9376 12.6205 16.0448 12.0047H10.6589C10.6573 10.7203 10.6589 9.43437 10.6589 8.14844Z" fill="#587DBD"/>
<path d="M1.82812 14.4375C2.90833 13.6042 3.98802 12.7667 5.06719 11.925C5.4847 13.1504 6.27876 14.2124 7.33594 14.9594C7.99533 15.4255 8.74458 15.749 9.53594 15.9094C10.3157 16.0544 11.1155 16.0544 11.8953 15.9094C12.6728 15.7778 13.4142 15.4851 14.0719 15.05C15.1172 15.8657 16.1672 16.675 17.2125 17.4907C16.0686 18.5309 14.6741 19.2561 13.1656 19.5954C11.5006 19.9868 9.76551 19.968 8.10938 19.5407C6.79953 19.1909 5.57606 18.5744 4.51562 17.7297C3.39322 16.8386 2.47649 15.7156 1.82812 14.4375Z" fill="#319F43"/>
</g>
<defs>
<clipPath id="clip0_437_2051">
<rect width="20" height="20" fill="white" transform="translate(0.460938)"/>
</clipPath>
</defs>
</svg>
