<svg width="28" height="28" viewBox="0 0 28 28" fill="none" xmlns="http://www.w3.org/2000/svg">
<path d="M0.75 24.5H27.75V27.5H0.75V24.5ZM5.25 20C6.9 20 8.25 18.65 8.25 17C8.25 16.25 7.95 15.5 7.5 15.05L9.45 11H9.75C10.5 11 11.25 10.7 11.7 10.25L15.75 12.35V12.5C15.75 14.15 17.1 15.5 18.75 15.5C20.4 15.5 21.75 14.15 21.75 12.5C21.75 11.75 21.45 11.15 21 10.55L22.95 6.5H23.25C24.9 6.5 26.25 5.15 26.25 3.5C26.25 1.85 24.9 0.5 23.25 0.5C21.6 0.5 20.25 1.85 20.25 3.5C20.25 4.25 20.55 5 21 5.45L19.05 9.5H18.75C18 9.5 17.25 9.8 16.8 10.25L12.75 8.3V8C12.75 6.35 11.4 5 9.75 5C8.1 5 6.75 6.35 6.75 8C6.75 8.75 7.05 9.5 7.5 9.95L5.55 14H5.25C3.6 14 2.25 15.35 2.25 17C2.25 18.65 3.6 20 5.25 20Z" fill="white"/>
</svg>
