<svg width="42" height="42" viewBox="0 0 42 42" fill="none" xmlns="http://www.w3.org/2000/svg">
<path fillRule="evenodd" clipRule="evenodd" d="M4.71131 10.92C4.74731 12.7416 3.75611 15.204 2.46731 16.4904C1.87458 17.0828 1.40438 17.7862 1.08358 18.5604C0.762774 19.3346 0.597656 20.1644 0.597656 21.0024C0.597656 21.8404 0.762774 22.6702 1.08358 23.4444C1.40438 24.2186 1.87458 24.922 2.46731 25.5144C3.73931 26.7816 4.67531 28.98 4.71131 30.7752C4.7449 32.364 5.3665 33.9432 6.5785 35.1528C7.69643 36.2737 9.19245 36.9369 10.7737 37.0128C12.6721 37.1088 15.1585 38.2128 16.5025 39.5568C17.0949 40.1492 17.7981 40.619 18.5721 40.9396C19.346 41.2602 20.1756 41.4252 21.0133 41.4252C21.851 41.4252 22.6806 41.2602 23.4545 40.9396C24.2285 40.619 24.9317 40.1492 25.5241 39.5568C26.8681 38.2128 29.3545 37.1088 31.2529 37.0128C32.8342 36.9369 34.3302 36.2737 35.4481 35.1528C36.6138 33.9886 37.2824 32.4176 37.3129 30.7704C37.3489 28.98 38.2729 26.796 39.5425 25.5288C40.743 24.3321 41.4189 22.7076 41.4216 21.0126C41.4243 19.3175 40.7535 17.6909 39.5569 16.4904C38.2705 15.2064 37.2769 12.7416 37.3153 10.9224C37.3334 10.0635 37.1772 9.20978 36.8563 8.41285C36.5354 7.61593 36.0564 6.89228 35.4481 6.28558C34.8176 5.65364 34.0612 5.16145 33.228 4.841C32.3948 4.52055 31.5036 4.37901 30.6121 4.42558C28.8985 4.51198 26.7361 3.68158 25.5241 2.46718C24.9317 1.87445 24.2283 1.40425 23.4541 1.08345C22.6799 0.762652 21.8501 0.597534 21.0121 0.597534C20.1741 0.597534 19.3443 0.762652 18.5701 1.08345C17.7959 1.40425 17.0925 1.87445 16.5001 2.46718C15.2905 3.67918 13.1257 4.51198 11.4121 4.42558C10.521 4.37935 9.63022 4.52106 8.79748 4.8415C7.96475 5.16194 7.20872 5.65395 6.5785 6.28558C5.97053 6.892 5.49166 7.61526 5.17075 8.41175C4.84985 9.20823 4.69356 10.0615 4.71131 10.92ZM28.2985 12.9024C28.5742 13.0553 28.817 13.2611 29.0131 13.508C29.2093 13.7548 29.3548 14.0379 29.4415 14.341C29.5282 14.6441 29.5543 14.9613 29.5184 15.2745C29.4825 15.5877 29.3852 15.8908 29.2321 16.1664L22.5889 28.1232C22.4155 28.4479 22.171 28.7293 21.8737 28.9464C21.4399 29.2597 20.9139 29.4193 20.3791 29.3997C19.8444 29.3801 19.3314 29.1826 18.9217 28.8384L12.3001 23.5416C12.054 23.3446 11.849 23.1011 11.697 22.8249C11.545 22.5487 11.4488 22.2453 11.414 21.9319C11.3793 21.6186 11.4066 21.3015 11.4944 20.9987C11.5822 20.6959 11.7287 20.4133 11.9257 20.1672C12.1227 19.921 12.3662 19.7161 12.6424 19.5641C12.9186 19.412 13.222 19.3159 13.5354 19.2811C13.8487 19.2464 14.1658 19.2736 14.4686 19.3614C14.7714 19.4492 15.054 19.5958 15.3001 19.7928L19.7473 23.352L25.0345 13.8336C25.1877 13.5581 25.3936 13.3155 25.6405 13.1196C25.8874 12.9237 26.1705 12.7784 26.4736 12.692C26.7767 12.6055 27.0939 12.5796 27.407 12.6157C27.7201 12.6518 28.023 12.7492 28.2985 12.9024Z" fill="#32CD33"/>
</svg>
