<svg width="20" height="21" viewBox="0 0 20 21" fill="none" xmlns="http://www.w3.org/2000/svg">
<path d="M9.95 16.5C10.3 16.5 10.596 16.379 10.838 16.137C11.08 15.895 11.2007 15.5993 11.2 15.25C11.1993 14.9007 11.0787 14.6047 10.838 14.362C10.5973 14.1193 10.3013 13.9987 9.95 14C9.59867 14.0013 9.303 14.1223 9.063 14.363C8.823 14.6037 8.702 14.8993 8.7 15.25C8.698 15.6007 8.819 15.8967 9.063 16.138C9.307 16.3793 9.60267 16.5 9.95 16.5ZM9.05 12.65H10.9C10.9 12.1 10.9627 11.6667 11.088 11.35C11.2133 11.0333 11.5673 10.6 12.15 10.05C12.5833 9.61667 12.925 9.20401 13.175 8.81201C13.425 8.42 13.55 7.94934 13.55 7.4C13.55 6.46667 13.2083 5.75001 12.525 5.25001C11.8417 4.75001 11.0333 4.50001 10.1 4.50001C9.15 4.50001 8.37933 4.75001 7.788 5.25001C7.19667 5.75001 6.784 6.35001 6.55 7.05001L8.2 7.70001C8.28333 7.4 8.471 7.07501 8.763 6.72501C9.055 6.37501 9.50067 6.20001 10.1 6.20001C10.6333 6.20001 11.0333 6.346 11.3 6.638C11.5667 6.93 11.7 7.25067 11.7 7.60001C11.7 7.93334 11.6 8.24601 11.4 8.538C11.2 8.83 10.95 9.10067 10.65 9.35001C9.91667 10 9.46667 10.4917 9.3 10.825C9.13333 11.1583 9.05 11.7667 9.05 12.65ZM10 20.5C8.61667 20.5 7.31667 20.2377 6.1 19.713C4.88334 19.1883 3.825 18.4757 2.925 17.575C2.025 16.6743 1.31267 15.616 0.788001 14.4C0.263335 13.184 0.000667933 11.884 1.26582e-06 10.5C-0.000665401 9.116 0.262001 7.81601 0.788001 6.60001C1.314 5.38401 2.02633 4.32567 2.925 3.42501C3.82367 2.52434 4.882 1.81201 6.1 1.28801C7.318 0.764005 8.618 0.501338 10 0.500005C11.382 0.498672 12.682 0.761339 13.9 1.28801C15.118 1.81467 16.1763 2.52701 17.075 3.42501C17.9737 4.32301 18.6863 5.38134 19.213 6.60001C19.7397 7.81867 20.002 9.11867 20 10.5C19.998 11.8813 19.7353 13.1813 19.212 14.4C18.6887 15.6187 17.9763 16.677 17.075 17.575C16.1737 18.473 15.1153 19.1857 13.9 19.713C12.6847 20.2403 11.3847 20.5027 10 20.5ZM10 18.5C12.2333 18.5 14.125 17.725 15.675 16.175C17.225 14.625 18 12.7333 18 10.5C18 8.26667 17.225 6.375 15.675 4.82501C14.125 3.27501 12.2333 2.50001 10 2.50001C7.76667 2.50001 5.875 3.27501 4.325 4.82501C2.775 6.375 2 8.26667 2 10.5C2 12.7333 2.775 14.625 4.325 16.175C5.875 17.725 7.76667 18.5 10 18.5Z" fill="white"/>
</svg>
