<svg width="48" height="48" viewBox="0 0 48 48" fill="none" xmlns="http://www.w3.org/2000/svg">
<path d="M30.1986 2.60998C29.3911 1.7836 28.4265 1.12696 27.3616 0.678644C26.2968 0.230332 25.153 -0.000610352 23.9976 -0.000610352C22.8422 -0.000610352 21.6984 0.230332 20.6335 0.678644C19.5686 1.12696 18.6041 1.7836 17.7966 2.60998L15.9306 4.52398L13.2606 4.49098C12.1048 4.4773 10.958 4.69485 9.88757 5.13084C8.81712 5.56683 7.84466 6.21246 7.02736 7.02975C6.21007 7.84705 5.56444 8.81951 5.12845 9.88996C4.69246 10.9604 4.47491 12.1072 4.48859 13.263L4.51859 15.933L2.61059 17.799C1.78421 18.6065 1.12757 19.571 0.679255 20.6359C0.230942 21.7008 0 22.8446 0 24C0 25.1554 0.230942 26.2991 0.679255 27.364C1.12757 28.4289 1.78421 29.3935 2.61059 30.201L4.52159 32.067L4.48859 34.737C4.47491 35.8927 4.69246 37.0395 5.12845 38.11C5.56444 39.1804 6.21007 40.1529 7.02736 40.9702C7.84466 41.7875 8.81712 42.4331 9.88757 42.8691C10.958 43.3051 12.1048 43.5227 13.2606 43.509L15.9306 43.479L17.7966 45.387C18.6041 46.2134 19.5686 46.87 20.6335 47.3183C21.6984 47.7666 22.8422 47.9976 23.9976 47.9976C25.153 47.9976 26.2968 47.7666 27.3616 47.3183C28.4265 46.87 29.3911 46.2134 30.1986 45.387L32.0646 43.476L34.7346 43.509C35.8903 43.5227 37.0372 43.3051 38.1076 42.8691C39.178 42.4331 40.1505 41.7875 40.9678 40.9702C41.7851 40.1529 42.4307 39.1804 42.8667 38.11C43.3027 37.0395 43.5203 35.8927 43.5066 34.737L43.4766 32.067L45.3846 30.201C46.211 29.3935 46.8676 28.4289 47.3159 27.364C47.7642 26.2991 47.9952 25.1554 47.9952 24C47.9952 22.8446 47.7642 21.7008 47.3159 20.6359C46.8676 19.571 46.211 18.6065 45.3846 17.799L43.4736 15.933L43.5066 13.263C43.5203 12.1072 43.3027 10.9604 42.8667 9.88996C42.4307 8.81951 41.7851 7.84705 40.9678 7.02975C40.1505 6.21246 39.178 5.56683 38.1076 5.13084C37.0372 4.69485 35.8903 4.4773 34.7346 4.49098L32.0646 4.52098L30.1986 2.60998ZM23.9976 12C25.6026 12 26.8596 13.386 26.6976 14.985L25.6476 25.506C25.6123 25.9193 25.4232 26.3043 25.1177 26.5849C24.8121 26.8655 24.4124 27.0211 23.9976 27.0211C23.5828 27.0211 23.1831 26.8655 22.8775 26.5849C22.572 26.3043 22.3829 25.9193 22.3476 25.506L21.2976 14.985C21.2599 14.6077 21.3016 14.2267 21.4201 13.8665C21.5386 13.5063 21.7313 13.1749 21.9856 12.8937C22.24 12.6125 22.5504 12.3877 22.8969 12.2338C23.2435 12.0798 23.6184 12.0002 23.9976 12ZM24.0036 30C24.7992 30 25.5623 30.316 26.1249 30.8787C26.6875 31.4413 27.0036 32.2043 27.0036 33C27.0036 33.7956 26.6875 34.5587 26.1249 35.1213C25.5623 35.6839 24.7992 36 24.0036 36C23.2079 36 22.4449 35.6839 21.8823 35.1213C21.3197 34.5587 21.0036 33.7956 21.0036 33C21.0036 32.2043 21.3197 31.4413 21.8823 30.8787C22.4449 30.316 23.2079 30 24.0036 30Z" fill="#FF696A"/>
</svg>
