<svg width="37" height="36" viewBox="0 0 37 36" fill="none" xmlns="http://www.w3.org/2000/svg">
<path d="M18.7474 3.375C15.6123 3.37574 12.5604 4.3839 10.0418 6.25082C7.52319 8.11774 5.67116 10.7446 4.75882 13.744C3.84648 16.7434 3.92213 19.9566 4.97461 22.9098C6.0271 25.8629 8.0007 28.3997 10.6044 30.146C13.2081 31.8923 16.304 32.7558 19.4357 32.609C22.5673 32.4622 25.5689 31.3129 27.9978 29.3307C30.4267 27.3484 32.1544 24.6382 32.926 21.5995C33.6976 18.5608 33.4723 15.3547 32.2834 12.4537C32.1133 12.0396 32.1147 11.5749 32.2873 11.1618C32.4599 10.7487 32.7895 10.4211 33.2037 10.251C33.6178 10.0809 34.0825 10.0823 34.4956 10.2549C34.9087 10.4275 35.2363 10.7571 35.4064 11.1712C36.9829 15.0193 37.1784 19.2944 35.9597 23.2702C34.741 27.2461 32.1834 30.6773 28.7213 32.9809C25.2592 35.2845 21.1064 36.3183 16.9684 35.9067C12.8304 35.4951 8.96255 33.6635 6.02211 30.723C3.08166 27.7826 1.25002 23.9148 0.838419 19.7768C0.426818 15.6388 1.46065 11.4859 3.76425 8.02384C6.06784 4.56178 9.49908 2.00411 13.4749 0.785438C17.4507 -0.433234 21.7259 -0.237723 25.5739 1.33875C25.7791 1.42281 25.9657 1.54647 26.1232 1.70266C26.2806 1.85885 26.4057 2.04452 26.4914 2.24907C26.577 2.45361 26.6216 2.67303 26.6224 2.89478C26.6233 3.11654 26.5805 3.33629 26.4964 3.5415C26.4123 3.74671 26.2887 3.93335 26.1325 4.09076C25.9763 4.24818 25.7906 4.37329 25.5861 4.45895C25.3815 4.54461 25.1621 4.58915 24.9404 4.59002C24.7186 4.59088 24.4989 4.54806 24.2937 4.464C22.5333 3.74381 20.6494 3.3739 18.7474 3.375ZM32.8774 3.87C33.1934 4.18641 33.3709 4.61531 33.3709 5.0625C33.3709 5.50969 33.1934 5.93859 32.8774 6.255L23.7357 15.399C24.3574 16.5906 24.5319 17.9654 24.2276 19.2745C23.9233 20.5836 23.1604 21.7405 22.0769 22.5357C20.9934 23.3309 19.661 23.7119 18.3209 23.6097C16.9808 23.5075 15.7215 22.9288 14.7712 21.9785C13.8208 21.0281 13.2422 19.7689 13.1399 18.4288C13.0377 17.0887 13.4187 15.7563 14.214 14.6728C15.0092 13.5893 16.1661 12.8263 17.4752 12.522C18.7843 12.2178 20.1591 12.3923 21.3507 13.014L30.4924 3.87C30.8088 3.55398 31.2377 3.37648 31.6849 3.37648C32.1321 3.37648 32.561 3.55398 32.8774 3.87ZM16.4974 18C16.4974 18.5967 16.7345 19.169 17.1564 19.591C17.5784 20.0129 18.1507 20.25 18.7474 20.25C19.3441 20.25 19.9164 20.0129 20.3384 19.591C20.7603 19.169 20.9974 18.5967 20.9974 18C20.9974 17.4033 20.7603 16.831 20.3384 16.409C19.9164 15.9871 19.3441 15.75 18.7474 15.75C18.1507 15.75 17.5784 15.9871 17.1564 16.409C16.7345 16.831 16.4974 17.4033 16.4974 18Z" fill="white"/>
</svg>
