<svg width="36" height="36" viewBox="0 0 36 36" fill="none" xmlns="http://www.w3.org/2000/svg">
<path d="M29.4786 18.8178C30.1208 16.198 30.0012 13.4494 29.1341 10.8953C28.2669 8.34124 26.6882 6.088 24.5838 4.40079C22.4794 2.71357 19.9368 1.66258 17.2553 1.37151C14.5738 1.08043 11.8649 1.56139 9.44748 2.75778C7.03006 3.95416 5.00468 5.81619 3.6097 8.12472C2.21472 10.4332 1.50819 13.0922 1.57327 15.7887C1.63835 18.4852 2.47232 21.107 3.97704 23.3455C5.48176 25.5841 7.5946 27.3462 10.0669 28.4246M1.56836 15.444H29.8824" stroke="white" strokeWidth="2" strokeLinecap="round" strokeLinejoin="round"/>
<path d="M11.5229 21.9781C10.8122 19.867 10.3934 17.6686 10.2783 15.4441C10.546 10.2664 12.4533 5.30802 15.7246 1.28577C18.995 5.30835 20.9014 10.2667 21.1683 15.4441C21.122 16.3522 21.0249 17.257 20.8778 18.1543M24.5755 21.0292L34.9383 25.5189L24.5755 30.0086L14.2177 25.5189L24.5806 21.0292H24.5755Z" stroke="white" strokeWidth="2" strokeLinecap="round" strokeLinejoin="round"/>
<path d="M18.912 27.5658L18.9223 32.4515C18.9223 32.4515 20.6323 34.7144 24.5717 34.7144C28.5111 34.7144 30.2289 32.4515 30.2289 32.4515V27.5658M14.2114 33.4158V25.5189" stroke="white" strokeWidth="2" strokeLinecap="round" strokeLinejoin="round"/>
</svg>
