<svg width="22" height="19" viewBox="0 0 22 19" fill="none" xmlns="http://www.w3.org/2000/svg">
<path d="M9.98536 15.1944C10.0902 15.2989 10.1735 15.4231 10.2302 15.5598C10.287 15.6966 10.3162 15.8432 10.3162 15.9913C10.3162 16.1393 10.287 16.2859 10.2302 16.4227C10.1735 16.5594 10.0902 16.6836 9.98536 16.7881L9.50536 17.2681C8.99583 17.7796 8.38996 18.1849 7.7228 18.4607C7.05563 18.7365 6.34041 18.8773 5.61848 18.875C4.5313 18.8754 3.46843 18.5532 2.56436 17.9494C1.66028 17.3455 0.955621 16.4871 0.539525 15.4827C0.123428 14.4783 0.0145938 13.373 0.22679 12.3068C0.438985 11.2405 0.962677 10.2611 1.73161 9.49251L4.98942 6.23469C5.68236 5.54186 6.54789 5.04682 7.4964 4.80084C8.44492 4.55485 9.44194 4.56686 10.3843 4.83561C11.3266 5.10437 12.1799 5.6201 12.856 6.32943C13.532 7.03875 14.0062 7.91588 14.2294 8.87001C14.2664 9.01508 14.274 9.16607 14.2519 9.31413C14.2298 9.46219 14.1783 9.60435 14.1005 9.73227C14.0228 9.86019 13.9202 9.9713 13.799 10.0591C13.6777 10.1469 13.5401 10.2096 13.3943 10.2435C13.2485 10.2775 13.0974 10.282 12.9498 10.2567C12.8023 10.2315 12.6612 10.1771 12.5349 10.0967C12.4087 10.0163 12.2997 9.91147 12.2145 9.7884C12.1292 9.66533 12.0694 9.52649 12.0385 9.38001C11.906 8.81678 11.6256 8.29916 11.226 7.88064C10.8265 7.46213 10.3225 7.15791 9.76604 6.99944C9.20957 6.84097 8.62088 6.834 8.06083 6.97925C7.50077 7.1245 6.98967 7.41669 6.58036 7.82563L3.32255 11.0834C2.86843 11.5372 2.55907 12.1154 2.43359 12.745C2.30812 13.3746 2.37216 14.0272 2.61762 14.6204C2.86308 15.2136 3.27893 15.7206 3.81258 16.0774C4.34623 16.4343 4.97372 16.6248 5.61567 16.625C6.04222 16.6263 6.46478 16.5429 6.85888 16.3797C7.25298 16.2165 7.6108 15.9768 7.91161 15.6744L8.39067 15.1944C8.49521 15.0894 8.61946 15.006 8.75629 14.9492C8.89312 14.8923 9.03984 14.863 9.18802 14.863C9.33619 14.863 9.48291 14.8923 9.61974 14.9492C9.75658 15.006 9.88083 15.0894 9.98536 15.1944ZM20.265 1.73469C19.2339 0.703928 17.8357 0.124878 16.3777 0.124878C14.9197 0.124878 13.5215 0.703928 12.4904 1.73469L12.0113 2.21376C11.8 2.4251 11.6812 2.71175 11.6812 3.01063C11.6812 3.30952 11.8 3.59616 12.0113 3.80751C12.2226 4.01885 12.5093 4.13758 12.8082 4.13758C13.1071 4.13758 13.3937 4.01885 13.605 3.80751L14.085 3.32751C14.6942 2.71834 15.5204 2.37611 16.3819 2.37611C17.2434 2.37611 18.0696 2.71834 18.6788 3.32751C19.288 3.93668 19.6302 4.76289 19.6302 5.62438C19.6302 6.48588 19.288 7.31209 18.6788 7.92126L15.4154 11.1744C15.1145 11.4768 14.7567 11.7165 14.3626 11.8797C13.9685 12.0429 13.546 12.1263 13.1194 12.125C12.3877 12.1245 11.6776 11.8768 11.1043 11.4221C10.531 10.9674 10.1281 10.3324 9.96099 9.62001C9.89335 9.32934 9.71303 9.07746 9.45968 8.91975C9.20633 8.76204 8.90071 8.71144 8.61005 8.77907C8.31939 8.8467 8.0675 9.02702 7.90979 9.28037C7.75208 9.53372 7.70148 9.83934 7.76911 10.13C8.0514 11.3365 8.73296 12.4122 9.70326 13.1827C10.6736 13.9532 11.8757 14.3734 13.1147 14.375H13.1194C13.8417 14.377 14.5572 14.2357 15.2245 13.9594C15.8918 13.6831 16.4978 13.2773 17.0072 12.7653L20.265 9.50751C20.7755 8.99718 21.1804 8.39129 21.4567 7.72445C21.7329 7.05762 21.8751 6.34289 21.8751 5.6211C21.8751 4.89931 21.7329 4.18458 21.4567 3.51775C21.1804 2.85091 20.7755 2.24503 20.265 1.73469Z" fill="#00ADEF"/>
</svg>
