<svg width="26" height="22" viewBox="0 0 26 22" fill="none" xmlns="http://www.w3.org/2000/svg">
<path d="M13.9387 21.1081C13.7989 20.9687 13.6879 20.8031 13.6122 20.6208C13.5365 20.4385 13.4975 20.243 13.4975 20.0456C13.4975 19.8481 13.5365 19.6527 13.6122 19.4703C13.6879 19.288 13.7989 19.1224 13.9387 18.9831L20.3749 12.5468L1.99995 12.5468C1.60212 12.5468 1.2206 12.3888 0.93929 12.1075C0.657985 11.8262 0.49995 11.4446 0.49995 11.0468C0.49995 10.649 0.657985 10.2675 0.939291 9.98616C1.2206 9.70485 1.60212 9.54682 1.99995 9.54682L20.3749 9.54682L13.9387 3.10807C13.6569 2.82628 13.4986 2.44409 13.4986 2.04557C13.4986 1.64706 13.6569 1.26486 13.9387 0.98307C14.2205 0.701278 14.6027 0.542968 15.0012 0.542968C15.3997 0.542968 15.7819 0.701278 16.0637 0.98307L25.0637 9.98307C25.2035 10.1224 25.3145 10.288 25.3902 10.4703C25.4659 10.6527 25.5049 10.8481 25.5049 11.0456C25.5049 11.243 25.4659 11.4385 25.3902 11.6208C25.3145 11.8031 25.2035 11.9687 25.0637 12.1081L16.0637 21.1081C15.9243 21.2479 15.7588 21.3589 15.5764 21.4346C15.3941 21.5103 15.1986 21.5493 15.0012 21.5493C14.8038 21.5493 14.6083 21.5103 14.426 21.4346C14.2436 21.3589 14.0781 21.2479 13.9387 21.1081Z" fill="white"/>
</svg>
