<svg width="66" height="63" viewBox="0 0 66 63" fill="none" xmlns="http://www.w3.org/2000/svg">
<path d="M61.293 49.2507V46.334L64.5013 44.0006C64.793 43.709 65.0846 43.4173 64.793 43.1257L61.8763 38.1673C61.8763 37.8757 61.293 37.8757 61.0013 37.8757L57.5013 39.334C56.6263 38.7507 55.7513 38.1673 54.8763 37.8757L54.293 34.084C54.293 33.7923 54.0013 33.5007 53.7096 33.5007H47.8763C47.293 33.5007 47.0013 33.7923 47.0013 34.084L46.418 37.8757C45.543 38.459 44.9596 38.7507 44.0846 39.334L40.5846 37.8757C40.293 37.8757 40.0013 37.8757 39.7096 38.1673L36.793 43.1257C36.793 43.4173 36.793 43.709 37.0846 44.0006L40.293 46.334V49.2507L37.0846 51.584C36.793 51.8757 36.5013 52.1673 36.793 52.459L39.7096 57.4173C40.0013 57.709 40.293 57.709 40.5846 57.709L44.0846 56.2507C44.668 56.834 45.543 57.4173 46.418 57.709L47.0013 61.5007C47.293 61.7923 47.5846 62.084 47.8763 62.084H53.7096C54.0013 62.084 54.293 61.7923 54.293 61.5007L54.8763 57.709C55.7513 57.1257 56.3346 56.834 57.2096 56.2507L60.7096 57.4173C61.0013 57.4173 61.293 57.4173 61.5846 57.1256L64.5013 52.1673C64.793 51.8757 64.793 51.584 64.5013 51.584L61.293 49.2507ZM50.5013 51.8757C48.168 51.8757 46.1263 49.834 46.1263 47.5007C46.1263 45.1673 48.168 43.1257 50.5013 43.1257C52.8346 43.1257 54.8763 45.1673 54.8763 47.5007C54.8763 49.834 52.8346 51.8757 50.5013 51.8757ZM33.8763 59.1673H6.7513C3.54297 59.1673 0.917969 56.5423 0.917969 53.334V6.66732C0.917969 3.45898 3.54297 0.833984 6.7513 0.833984H59.2513C62.4596 0.833984 65.0846 3.45898 65.0846 6.66732V33.209C63.3346 31.459 61.293 30.0007 59.2513 29.1257V12.5007H6.7513V53.334H30.9596C31.543 55.3757 32.418 57.4173 33.8763 59.1673Z" fill="#00ADEF"/>
</svg>
