<svg width="26" height="22" viewBox="0 0 26 22" fill="none" xmlns="http://www.w3.org/2000/svg">
<path d="M12.0613 0.98568C12.2011 1.12503 12.3121 1.29062 12.3878 1.47295C12.4635 1.65528 12.5025 1.85076 12.5025 2.04818C12.5025 2.2456 12.4635 2.44108 12.3878 2.62341C12.3121 2.80573 12.2011 2.97133 12.0613 3.11068L5.62505 9.54693L24 9.54693C24.3979 9.54693 24.7794 9.70497 25.0607 9.98627C25.342 10.2676 25.5 10.6491 25.5 11.0469C25.5 11.4448 25.342 11.8263 25.0607 12.1076C24.7794 12.3889 24.3979 12.5469 24 12.5469L5.62505 12.5469L12.0613 18.9857C12.3431 19.2675 12.5014 19.6497 12.5014 20.0482C12.5014 20.4467 12.3431 20.8289 12.0613 21.1107C11.7795 21.3925 11.3973 21.5508 10.9988 21.5508C10.6003 21.5508 10.2181 21.3925 9.9363 21.1107L0.9363 12.1107C0.79646 11.9713 0.685505 11.8057 0.609797 11.6234C0.534089 11.4411 0.495117 11.2456 0.495117 11.0482C0.495117 10.8508 0.534089 10.6553 0.609797 10.473C0.685505 10.2906 0.79646 10.125 0.9363 9.98568L9.9363 0.98568C10.0757 0.845841 10.2412 0.734884 10.4236 0.659176C10.6059 0.583468 10.8014 0.544495 10.9988 0.544495C11.1962 0.544495 11.3917 0.583468 11.574 0.659176C11.7564 0.734884 11.9219 0.845841 12.0613 0.98568Z" fill="white"/>
</svg>
