<svg width="599" height="500" viewBox="0 0 599 500" fill="none" xmlns="http://www.w3.org/2000/svg">
<path d="M238.925 0V100.312C207.212 102.062 183.2 107.85 166.912 117.688C150.612 127.525 139.162 143.475 132.55 165.55C125.95 187.625 122.637 219.2 122.637 260.288H238.925V499.6H0.412476V272.087C0.412476 178.112 20.5625 109.275 60.8625 65.5625C101.175 21.85 160.525 0 238.925 0ZM599 0V100.312C567.287 102.062 543.287 107.638 526.987 117.038C510.687 126.425 498.9 142.387 491.637 164.9C484.375 187.4 480.738 219.2 480.738 260.288H599V499.6H359.175V272.087C359.175 178.112 379.213 109.275 419.288 65.5625C459.375 21.85 519.275 0 599 0Z" fill="#00ADEF"/>
</svg>
