<svg width="34" height="34" viewBox="0 0 34 34" fill="none" xmlns="http://www.w3.org/2000/svg">
<path d="M14.6145 23.471L8.25 17.105L10.371 14.984L14.6145 19.226L23.0985 10.7405L25.221 12.863L14.6145 23.471Z" fill="white"/>
<path fillRule="evenodd" clipRule="evenodd" d="M0.75293 17C0.75293 7.8875 8.14043 0.5 17.2529 0.5C26.3654 0.5 33.7529 7.8875 33.7529 17C33.7529 26.1125 26.3654 33.5 17.2529 33.5C8.14043 33.5 0.75293 26.1125 0.75293 17ZM17.2529 30.5C15.4801 30.5 13.7246 30.1508 12.0867 29.4724C10.4488 28.7939 8.96058 27.7995 7.70699 26.5459C6.4534 25.2923 5.45899 23.8041 4.78056 22.1662C4.10212 20.5283 3.75293 18.7728 3.75293 17C3.75293 15.2272 4.10212 13.4717 4.78056 11.8338C5.45899 10.1959 6.4534 8.70765 7.70699 7.45406C8.96058 6.20047 10.4488 5.20606 12.0867 4.52763C13.7246 3.84919 15.4801 3.5 17.2529 3.5C20.8334 3.5 24.2671 4.92232 26.7989 7.45406C29.3306 9.9858 30.7529 13.4196 30.7529 17C30.7529 20.5804 29.3306 24.0142 26.7989 26.5459C24.2671 29.0777 20.8334 30.5 17.2529 30.5Z" fill="white"/>
</svg>
