<svg width="54" height="54" viewBox="0 0 54 54" fill="none" xmlns="http://www.w3.org/2000/svg">
<path d="M35.4121 15.4845C34.6885 15.4849 33.9874 15.7362 33.4283 16.1955C32.8692 16.6549 32.4867 17.2938 32.3459 18.0036C32.2051 18.7134 32.3147 19.45 32.6561 20.088C32.9975 20.726 33.5496 21.2259 34.2182 21.5024C34.8869 21.779 35.6307 21.8152 36.3231 21.6049C37.0154 21.3945 37.6134 20.9506 38.0152 20.3488C38.4169 19.747 38.5976 19.0245 38.5264 18.3044C38.4551 17.5843 38.1365 16.9112 37.6246 16.3997C37.3343 16.1089 36.9894 15.8783 36.6097 15.7212C36.23 15.5642 35.823 15.4837 35.4121 15.4845Z" fill="#00ADEF"/>
<path d="M52.825 2.9771C52.8245 2.97361 52.8245 2.97005 52.825 2.96656C52.7259 2.53216 52.5074 2.1341 52.1941 1.81729C51.8808 1.50048 51.4852 1.27753 51.0519 1.17359C47.5598 0.321634 42.066 1.22984 35.9781 3.66734C29.8422 6.12827 24.093 9.76109 20.207 13.6541C18.9616 14.8931 17.8044 16.2178 16.7441 17.6185C14.1273 17.5013 11.8223 17.874 9.88046 18.7212C3.11406 21.699 1.18163 29.3197 0.667181 32.4486C0.592738 32.8932 0.621887 33.3489 0.752358 33.7804C0.882829 34.2119 1.1111 34.6074 1.41942 34.9362C1.72773 35.2651 2.10776 35.5183 2.52994 35.6763C2.95212 35.8343 3.40506 35.8927 3.85351 35.847H3.86874L11.4062 35.0244C11.4156 35.1205 11.4262 35.2084 11.4344 35.2892C11.5312 36.2077 11.9408 37.065 12.5945 37.7173L16.273 41.3982C16.9244 42.0528 17.7815 42.463 18.7 42.5595L18.9519 42.5865L18.1316 50.1146V50.1298C18.0897 50.5353 18.1329 50.945 18.2583 51.3328C18.3838 51.7207 18.5887 52.078 18.8602 52.3821C19.1316 52.6862 19.4635 52.9303 19.8347 53.0988C20.2058 53.2673 20.608 53.3565 21.0156 53.3607C21.1786 53.361 21.3412 53.3476 21.5019 53.3209C24.6484 52.8146 32.2656 50.9056 35.2351 44.1029C36.0754 42.174 36.4469 39.8783 36.3426 37.2662C37.7496 36.2082 39.0792 35.051 40.3211 33.8033C44.2387 29.9056 47.8832 24.2033 50.3184 18.1564C52.743 12.1376 53.6559 6.60288 52.825 2.9771ZM40.2789 23.4709C39.316 24.4347 38.0889 25.0914 36.7527 25.3577C35.4165 25.624 34.0314 25.4881 32.7725 24.967C31.5136 24.446 30.4376 23.5632 29.6805 22.4305C28.9234 21.2978 28.5193 19.9659 28.5193 18.6035C28.5193 17.241 28.9234 15.9092 29.6805 14.7765C30.4376 13.6437 31.5136 12.761 32.7725 12.2399C34.0314 11.7189 35.4165 11.5829 36.7527 11.8492C38.0889 12.1155 39.316 12.7722 40.2789 13.7361C40.9243 14.3718 41.4368 15.1295 41.7866 15.9651C42.1365 16.8007 42.3166 17.6976 42.3166 18.6035C42.3166 19.5094 42.1365 20.4062 41.7866 21.2418C41.4368 22.0774 40.9243 22.8352 40.2789 23.4709Z" fill="#00ADEF"/>
<path d="M15.8512 42.3967C15.3977 42.3404 14.9393 42.4517 14.5621 42.7096C13.8133 43.2217 13.0609 43.7279 12.3016 44.2213C10.7652 45.2197 8.92774 43.4666 9.84063 41.8775L11.2645 39.4166C11.468 39.1188 11.5814 38.7686 11.5909 38.4081C11.6005 38.0475 11.5058 37.6918 11.3183 37.3837C11.1307 37.0756 10.8583 36.8281 10.5337 36.6709C10.209 36.5137 9.84591 36.4535 9.4879 36.4975C7.90762 36.6973 6.43872 37.4171 5.31251 38.5435C4.8836 38.9736 3.5793 40.2791 2.87735 45.2537C2.67756 46.6826 2.55161 48.1208 2.50001 49.5627C2.49359 49.8129 2.53735 50.0619 2.6287 50.295C2.72005 50.528 2.85715 50.7405 3.0319 50.9197C3.20665 51.0989 3.41553 51.2413 3.6462 51.3386C3.87687 51.4358 4.12468 51.4858 4.37501 51.4857H4.42188C5.86485 51.4346 7.30424 51.3095 8.73438 51.1107C13.7113 50.4076 15.0168 49.1021 15.4457 48.6732C16.5773 47.5465 17.2954 46.0707 17.4836 44.485C17.5438 43.9916 17.4057 43.4945 17.0996 43.1029C16.7935 42.7113 16.3445 42.4573 15.8512 42.3967Z" fill="#00ADEF"/>
</svg>
