<svg width="38" height="40" viewBox="0 0 38 40" fill="none" xmlns="http://www.w3.org/2000/svg">
<path d="M19.0264 0.5C20.4944 0.516 21.9564 0.686 23.3904 1.006C23.6955 1.0741 23.9716 1.23581 24.1803 1.46852C24.389 1.70124 24.5198 1.99334 24.5544 2.304L24.8944 5.358C24.9424 5.78857 25.0908 6.20186 25.3277 6.56461C25.5645 6.92737 25.8832 7.22946 26.2581 7.44658C26.633 7.6637 27.0537 7.78979 27.4862 7.8147C27.9187 7.83961 28.351 7.76264 28.7484 7.59L31.5484 6.36C31.8329 6.2347 32.1493 6.20088 32.4538 6.26323C32.7584 6.32557 33.036 6.48099 33.2484 6.708C35.2725 8.87031 36.7803 11.4633 37.6584 14.292C37.7501 14.5895 37.7471 14.9081 37.6496 15.2038C37.5521 15.4994 37.3651 15.7574 37.1144 15.942L34.6324 17.774C34.2827 18.0303 33.9983 18.3655 33.8023 18.7522C33.6063 19.1389 33.5041 19.5664 33.5041 20C33.5041 20.4336 33.6063 20.8611 33.8023 21.2478C33.9983 21.6345 34.2827 21.9697 34.6324 22.226L37.1184 24.056C37.3695 24.2407 37.5568 24.499 37.6543 24.7951C37.7518 25.0912 37.7546 25.4102 37.6624 25.708C36.7849 28.5366 35.2778 31.1295 33.2544 33.292C33.0424 33.5189 32.7652 33.6745 32.4611 33.7372C32.1569 33.7999 31.8408 33.7666 31.5564 33.642L28.7444 32.408C28.3476 32.234 27.9154 32.1559 27.4827 32.18C27.0501 32.204 26.6292 32.3296 26.2542 32.5466C25.8791 32.7635 25.5604 33.0657 25.3238 33.4287C25.0872 33.7917 24.9394 34.2053 24.8924 34.636L24.5524 37.688C24.5184 37.995 24.3905 38.2841 24.1861 38.5157C23.9817 38.7473 23.7108 38.9101 23.4104 38.982C20.5136 39.6726 17.4951 39.6726 14.5984 38.982C14.2976 38.9105 14.0262 38.7478 13.8214 38.5162C13.6167 38.2845 13.4885 37.9953 13.4544 37.688L13.1164 34.64C13.0673 34.2106 12.9182 33.7987 12.6811 33.4374C12.4439 33.0761 12.1254 32.7754 11.751 32.5595C11.3766 32.3437 10.9568 32.2186 10.5253 32.1943C10.0938 32.1701 9.6626 32.2474 9.26638 32.42L6.45438 33.652C6.1697 33.7771 5.85318 33.8106 5.54862 33.7479C5.24406 33.6852 4.96652 33.5293 4.75438 33.302C2.73064 31.137 1.22419 28.5412 0.348384 25.71C0.256177 25.4122 0.259017 25.0932 0.35651 24.7971C0.454002 24.501 0.641304 24.2427 0.892384 24.058L3.37838 22.226C3.72808 21.9697 4.01246 21.6345 4.20848 21.2478C4.40451 20.8611 4.50666 20.4336 4.50666 20C4.50666 19.5664 4.40451 19.1389 4.20848 18.7522C4.01246 18.3655 3.72808 18.0303 3.37838 17.774L0.892384 15.946C0.641304 15.7613 0.454002 15.503 0.35651 15.2069C0.259017 14.9108 0.256177 14.5918 0.348384 14.294C1.22647 11.4653 2.73423 8.87231 4.75838 6.71C4.97075 6.48299 5.24841 6.32757 5.55296 6.26523C5.8575 6.20288 6.17389 6.2367 6.45838 6.362L9.25838 7.592C9.65642 7.76454 10.0894 7.84132 10.5225 7.81617C10.9556 7.79102 11.3767 7.66465 11.7521 7.44719C12.1275 7.22974 12.4467 6.92727 12.684 6.56408C12.9212 6.2009 13.07 5.78712 13.1184 5.356L13.4584 2.304C13.4927 1.99271 13.6236 1.69997 13.8327 1.46683C14.0418 1.23369 14.3186 1.07185 14.6244 1.004C16.0564 0.686667 17.5237 0.518667 19.0264 0.5ZM19.0024 14C17.4111 14 15.885 14.6321 14.7597 15.7574C13.6345 16.8826 13.0024 18.4087 13.0024 20C13.0024 21.5913 13.6345 23.1174 14.7597 24.2426C15.885 25.3679 17.4111 26 19.0024 26C20.5937 26 22.1198 25.3679 23.245 24.2426C24.3702 23.1174 25.0024 21.5913 25.0024 20C25.0024 18.4087 24.3702 16.8826 23.245 15.7574C22.1198 14.6321 20.5937 14 19.0024 14Z" fill="#FEA500"/>
</svg>
