<svg width="19" height="19" viewBox="0 0 19 19" fill="none" xmlns="http://www.w3.org/2000/svg">
<path d="M12.5459 10.2959L8.79594 14.0459C8.58459 14.2573 8.29795 14.376 7.99906 14.376C7.70018 14.376 7.41353 14.2573 7.20219 14.0459C6.99084 13.8346 6.87211 13.5479 6.87211 13.2491C6.87211 12.9502 6.99084 12.6635 7.20219 12.4522L9.03125 10.625H1.25C0.951631 10.625 0.665483 10.5065 0.454505 10.2955C0.243526 10.0845 0.125 9.79837 0.125 9.5C0.125 9.20163 0.243526 8.91548 0.454505 8.7045C0.665483 8.49353 0.951631 8.375 1.25 8.375H9.03125L7.20406 6.54594C7.09942 6.44129 7.0164 6.31706 6.95977 6.18033C6.90314 6.0436 6.87399 5.89706 6.87399 5.74906C6.87399 5.45018 6.99272 5.16353 7.20406 4.95219C7.41541 4.74084 7.70205 4.62211 8.00094 4.62211C8.29982 4.62211 8.58647 4.74084 8.79781 4.95219L12.5478 8.70219C12.6526 8.80683 12.7356 8.93112 12.7923 9.06793C12.8489 9.20474 12.8779 9.35139 12.8778 9.49945C12.8776 9.64752 12.8482 9.79409 12.7912 9.93077C12.7343 10.0675 12.6509 10.1915 12.5459 10.2959ZM17.75 0.125H11.75C11.4516 0.125 11.1655 0.243526 10.9545 0.454505C10.7435 0.665483 10.625 0.951631 10.625 1.25C10.625 1.54837 10.7435 1.83452 10.9545 2.0455C11.1655 2.25647 11.4516 2.375 11.75 2.375H16.625V16.625H11.75C11.4516 16.625 11.1655 16.7435 10.9545 16.9545C10.7435 17.1655 10.625 17.4516 10.625 17.75C10.625 18.0484 10.7435 18.3345 10.9545 18.5455C11.1655 18.7565 11.4516 18.875 11.75 18.875H17.75C18.0484 18.875 18.3345 18.7565 18.5455 18.5455C18.7565 18.3345 18.875 18.0484 18.875 17.75V1.25C18.875 0.951631 18.7565 0.665483 18.5455 0.454505C18.3345 0.243526 18.0484 0.125 17.75 0.125Z" fill="white"/>
</svg>
