<svg width="40" height="40" viewBox="0 0 40 40" fill="none" xmlns="http://www.w3.org/2000/svg">
<path d="M27 29.8L29.8 27C30 26.8 30.1 26.5667 30.1 26.3C30.1 26.0333 30 25.8 29.8 25.6L23 18.75C23.1333 18.3833 23.2333 18.0167 23.3 17.65C23.3667 17.2833 23.4 16.8667 23.4 16.4C23.4 14.5 22.7253 12.8753 21.376 11.526C20.0267 10.1767 18.4013 9.50133 16.5 9.5C16.1333 9.5 15.7833 9.51667 15.45 9.55C15.1167 9.58333 14.7833 9.66667 14.45 9.8C14.15 9.93333 13.9667 10.1667 13.9 10.5C13.8333 10.8333 13.9167 11.1167 14.15 11.35L17.85 15.05L15.05 17.85L11.35 14.15C11.1167 13.9167 10.8333 13.8333 10.5 13.9C10.1667 13.9667 9.93334 14.15 9.8 14.45C9.7 14.7833 9.62467 15.1167 9.574 15.45C9.52334 15.7833 9.49867 16.1333 9.5 16.5C9.5 18.4 10.1753 20.0253 11.526 21.376C12.8767 22.7267 14.5013 23.4013 16.4 23.4C16.8333 23.4 17.242 23.3667 17.626 23.3C18.01 23.2333 18.3847 23.1333 18.75 23L25.6 29.8C25.8 30 26.0333 30.1 26.3 30.1C26.5667 30.1 26.8 30 27 29.8ZM20 40C17.2333 40 14.6333 39.4747 12.2 38.424C9.76667 37.3733 7.65 35.9487 5.85 34.15C4.05 32.3513 2.62534 30.2347 1.576 27.8C0.526669 25.3653 0.00133587 22.7653 2.53164e-06 20C-0.0013308 17.2347 0.524003 14.6347 1.576 12.2C2.628 9.76533 4.05267 7.64867 5.85 5.85C7.64734 4.05133 9.764 2.62667 12.2 1.576C14.636 0.525334 17.236 0 20 0C22.764 0 25.364 0.525334 27.8 1.576C30.236 2.62667 32.3527 4.05133 34.15 5.85C35.9473 7.64867 37.3727 9.76533 38.426 12.2C39.4793 14.6347 40.004 17.2347 40 20C39.996 22.7653 39.4707 25.3653 38.424 27.8C37.3773 30.2347 35.9527 32.3513 34.15 34.15C32.3473 35.9487 30.2307 37.374 27.8 38.426C25.3693 39.478 22.7693 40.0027 20 40Z" fill="#FEA500"/>
</svg>
