<?xml version="1.0" encoding="UTF-8"?>
<svg id="Layer_1" data-name="Layer 1" xmlns="http://www.w3.org/2000/svg" viewBox="0 0 24 24">
  <path d="m17.063,2.185c-1.245.06-2.442.603-3.367,1.528l-3.63,3.63c.57-.573,2.687-.179,3.2.334l2.197-2.197c.487-.487,1.096-.785,1.719-.812.424-.021,1.024.069,1.552.597.493.493.597,1.066.597,1.457,0,.654-.299,1.304-.812,1.815l-3.821,3.845c-.961.961-2.424,1.039-3.272.191-.484-.484-1.281-.487-1.767,0s-.487,1.281,0,1.767c.872.872,2.018,1.313,3.2,1.313,1.278,0,2.582-.522,3.582-1.528l3.845-3.821c.976-.973,1.528-2.275,1.528-3.582,0-1.215-.46-2.37-1.313-3.224-.913-.913-2.14-1.373-3.439-1.313Zm-5.922,6.161c-1.278,0-2.603.525-3.606,1.528l-3.821,3.821c-.976.973-1.528,2.275-1.528,3.582,0,1.215.46,2.37,1.313,3.224.913.913,2.14,1.373,3.439,1.313,1.245-.06,2.442-.603,3.367-1.528l3.63-3.63c-.573.573-2.687.179-3.2-.334l-2.197,2.197c-.487.487-1.096.782-1.719.812-.424.021-1.024-.069-1.552-.597-.493-.493-.597-1.069-.597-1.457,0-.654.299-1.304.812-1.815l3.821-3.845c.961-.961,2.424-1.036,3.272-.191.487.487,1.284.487,1.767,0,.487-.487.487-1.281,0-1.767-.872-.872-2.021-1.313-3.2-1.313Z" fill="#fff"/>
</svg>