<svg width="48" height="48" viewBox="0 0 48 48" fill="none" xmlns="http://www.w3.org/2000/svg">
<path d="M0.75 42.0833H47.25V47.25H0.75V42.0833ZM8.5 34.3333C11.3417 34.3333 13.6667 32.0083 13.6667 29.1667C13.6667 27.875 13.15 26.5833 12.375 25.8083L15.7333 18.8333H16.25C17.5417 18.8333 18.8333 18.3167 19.6083 17.5417L26.5833 21.1583V21.4167C26.5833 24.2583 28.9083 26.5833 31.75 26.5833C34.5917 26.5833 36.9167 24.2583 36.9167 21.4167C36.9167 20.125 36.4 19.0917 35.625 18.0583L38.9833 11.0833H39.5C42.3417 11.0833 44.6667 8.75833 44.6667 5.91667C44.6667 3.075 42.3417 0.75 39.5 0.75C36.6583 0.75 34.3333 3.075 34.3333 5.91667C34.3333 7.20833 34.85 8.5 35.625 9.275L32.2667 16.25H31.75C30.4583 16.25 29.1667 16.7667 28.3917 17.5417L21.4167 14.1833V13.6667C21.4167 10.825 19.0917 8.5 16.25 8.5C13.4083 8.5 11.0833 10.825 11.0833 13.6667C11.0833 14.9583 11.6 16.25 12.375 17.025L9.01667 24H8.5C5.65833 24 3.33333 26.325 3.33333 29.1667C3.33333 32.0083 5.65833 34.3333 8.5 34.3333Z" fill="#00ADEF"/>
</svg>
