<?xml version="1.0" encoding="UTF-8"?>
<svg id="Layer_1" data-name="Layer 1" xmlns="http://www.w3.org/2000/svg" viewBox="0 0 24 24">
  <path d="m10.46,1.222c-2.268,0-4.106,1.838-4.106,4.106s1.838,4.106,4.106,4.106,4.106-1.838,4.106-4.106-1.838-4.106-4.106-4.106Zm6.159,9.238c-3.387,0-6.159,2.771-6.159,6.159s2.771,6.159,6.159,6.159,6.159-2.771,6.159-6.159-2.771-6.159-6.159-6.159Zm-7.133,2.101c-3.244.269-8.264,1.795-8.264,4.571v2.566h7.789c-.386-.952-.603-1.989-.603-3.079,0-1.478.395-2.86,1.079-4.058Zm6.107.978h2.053v2.053h2.053v2.053h-2.053v2.053h-2.053v-2.053h-2.053v-2.053h2.053v-2.053Z" fill="#fff"/>
</svg>