<svg width="25" height="27" viewBox="0 0 25 27" fill="none" xmlns="http://www.w3.org/2000/svg">
<path d="M17.6202 14.646C19.5899 15.5758 21.2694 17.0242 22.4786 18.8359C23.6878 20.6476 24.3811 22.7543 24.4842 24.93C24.4979 25.1293 24.4717 25.3293 24.4071 25.5184C24.3424 25.7074 24.2407 25.8816 24.1078 26.0308C23.9749 26.1799 23.8136 26.3011 23.6333 26.387C23.453 26.473 23.2573 26.5221 23.0577 26.5314C22.8582 26.5408 22.6588 26.5101 22.4712 26.4413C22.2837 26.3726 22.1118 26.267 21.9655 26.1309C21.8193 25.9947 21.7018 25.8308 21.6198 25.6486C21.5379 25.4664 21.4931 25.2697 21.4882 25.07C21.3791 22.7591 20.3844 20.5788 18.7104 18.982C17.0364 17.3851 14.8117 16.4941 12.4982 16.4941C10.1847 16.4941 7.95999 17.3851 6.28598 18.982C4.61197 20.5788 3.6172 22.7591 3.50817 25.07C3.48123 25.4612 3.3022 25.8262 3.00941 26.087C2.71663 26.3478 2.33337 26.4836 1.9417 26.4653C1.55004 26.447 1.18111 26.2761 0.91392 25.9891C0.64673 25.7021 0.502521 25.322 0.512174 24.93C0.615033 22.7545 1.30803 20.648 2.51687 18.8363C3.72571 17.0246 5.40481 15.5761 7.37417 14.646C6.1122 13.5934 5.2051 12.1776 4.77628 10.5911C4.34745 9.00473 4.41771 7.32473 4.9775 5.77967C5.53729 4.2346 6.55944 2.89947 7.9049 1.9559C9.25036 1.01232 10.8538 0.506104 12.4972 0.506104C14.1405 0.506104 15.744 1.01232 17.0894 1.9559C18.4349 2.89947 19.4571 4.2346 20.0168 5.77967C20.5766 7.32473 20.6469 9.00473 20.2181 10.5911C19.7892 12.1776 18.8822 13.5934 17.6202 14.646ZM17.4982 8.5C17.4982 7.17392 16.9714 5.90215 16.0337 4.96446C15.096 4.02678 13.8243 3.5 12.4982 3.5C11.1721 3.5 9.90032 4.02678 8.96264 4.96446C8.02496 5.90215 7.49817 7.17392 7.49817 8.5C7.49817 9.82608 8.02496 11.0978 8.96264 12.0355C9.90032 12.9732 11.1721 13.5 12.4982 13.5C13.8243 13.5 15.096 12.9732 16.0337 12.0355C16.9714 11.0978 17.4982 9.82608 17.4982 8.5Z" fill="#808080"/>
</svg>
