<svg width="22" height="20" viewBox="0 0 22 20" fill="none" xmlns="http://www.w3.org/2000/svg">
<path d="M20.9714 18.1875C19.686 15.9316 17.679 14.1738 15.2733 13.1972C16.4696 12.2999 17.3533 11.049 17.7992 9.62164C18.2451 8.19424 18.2305 6.66274 17.7576 5.24407C17.2847 3.8254 16.3775 2.59148 15.1643 1.71709C13.9512 0.842709 12.4937 0.372192 10.9983 0.372192C9.50286 0.372192 8.04535 0.842709 6.83221 1.71709C5.61907 2.59148 4.71179 3.8254 4.2389 5.24407C3.76601 6.66274 3.75148 8.19424 4.19736 9.62164C4.64325 11.049 5.52694 12.2999 6.72327 13.1972C4.31757 14.1738 2.3105 15.9316 1.02515 18.1875C0.945501 18.3156 0.892418 18.4583 0.869053 18.6073C0.845687 18.7563 0.852517 18.9085 0.889135 19.0548C0.925753 19.2011 0.991413 19.3385 1.08221 19.4589C1.17301 19.5794 1.28709 19.6803 1.41767 19.7557C1.54826 19.8312 1.69268 19.8796 1.84235 19.8981C1.99202 19.9166 2.14388 19.9049 2.28891 19.8635C2.43395 19.8222 2.56918 19.7521 2.68659 19.6574C2.80399 19.5628 2.90117 19.4455 2.97233 19.3125C4.67108 16.3763 7.67108 14.625 10.9983 14.625C14.3255 14.625 17.3255 16.3772 19.0242 19.3125C19.1784 19.5605 19.4231 19.7388 19.7064 19.8097C19.9897 19.8806 20.2895 19.8386 20.5423 19.6925C20.7952 19.5464 20.9813 19.3077 21.0614 19.0268C21.1415 18.746 21.1092 18.445 20.9714 18.1875ZM6.12327 7.5C6.12327 6.53582 6.40918 5.59329 6.94486 4.7916C7.48053 3.98991 8.2419 3.36507 9.13269 2.99609C10.0235 2.62712 11.0037 2.53057 11.9493 2.71868C12.895 2.90678 13.7636 3.37108 14.4454 4.05286C15.1272 4.73464 15.5915 5.60328 15.7796 6.54894C15.9677 7.4946 15.8712 8.4748 15.5022 9.36559C15.1332 10.2564 14.5084 11.0177 13.7067 11.5534C12.905 12.0891 11.9625 12.375 10.9983 12.375C9.7058 12.3735 8.46669 11.8594 7.55277 10.9455C6.63885 10.0316 6.12476 8.79248 6.12327 7.5Z" fill="#00ADEF"/>
</svg>
