<svg width="70" height="70" viewBox="0 0 70 70" fill="none" xmlns="http://www.w3.org/2000/svg">
<path fillRule="evenodd" clipRule="evenodd" d="M34.9985 0C15.668 0 -0.00146484 15.6695 -0.00146484 35C-0.00146484 54.3305 15.668 70 34.9985 70C54.329 70 69.9985 54.3305 69.9985 35C69.9985 15.6695 54.329 0 34.9985 0ZM22.7485 26.25C22.7485 24.6413 23.0654 23.0484 23.681 21.5621C24.2966 20.0759 25.199 18.7255 26.3365 17.5879C27.474 16.4504 28.8244 15.5481 30.3107 14.9325C31.7969 14.3169 33.3898 14 34.9985 14C36.6072 14 38.2002 14.3169 39.6864 14.9325C41.1726 15.5481 42.5231 16.4504 43.6606 17.5879C44.7981 18.7255 45.7004 20.0759 46.3161 21.5621C46.9317 23.0484 47.2485 24.6413 47.2485 26.25C47.2485 29.4989 45.9579 32.6147 43.6606 34.9121C41.3633 37.2094 38.2474 38.5 34.9985 38.5C31.7496 38.5 28.6338 37.2094 26.3365 34.9121C24.0392 32.6147 22.7485 29.4989 22.7485 26.25ZM56.9015 52.444C54.2807 55.7387 50.9498 58.3992 47.1573 60.227C43.3648 62.0547 39.2085 63.0027 34.9985 63C30.7886 63.0027 26.6323 62.0547 22.8398 60.227C19.0473 58.3992 15.7164 55.7387 13.0955 52.444C18.769 48.3735 26.511 45.5 34.9985 45.5C43.486 45.5 51.228 48.3735 56.9015 52.444Z" fill="#00ADEF"/>
</svg>
